<?xml version="1.0" standalone="no"?>
<!DOCTYPE svg PUBLIC "-//W3C//DTD SVG 1.1//EN" "http://www.w3.org/Graphics/SVG/1.1/DTD/svg11.dtd" >
<svg xmlns="http://www.w3.org/2000/svg">
<metadata></metadata>
<defs>
<font id="polentical_neonitalic" horiz-adv-x="1700" >
<font-face units-per-em="2048" ascent="1638" descent="-410" />
<missing-glyph horiz-adv-x="800" />
<glyph horiz-adv-x="2048" />
<glyph horiz-adv-x="2048" />
<glyph unicode="&#xd;" horiz-adv-x="2048" />
<glyph unicode=" "  horiz-adv-x="800" />
<glyph unicode="&#x09;" horiz-adv-x="800" />
<glyph unicode="&#xa0;" horiz-adv-x="800" />
<glyph unicode="!" horiz-adv-x="400" d="M100 0l28 200h200l-28 -200h-200zM156 400l141 1000h200l-141 -1000h-200z" />
<glyph unicode="&#x22;" horiz-adv-x="800" d="M226 900l71 500h200l-63 -450zM626 900l71 500h200l-63 -450z" />
<glyph unicode="#" horiz-adv-x="1900" d="M142 300l28 200h242l171 400h-357l29 200h414l128 300h200l-128 -300h700l128 300h200l-128 -300h186l-29 -200h-243l-171 -400h358l-28 -200h-415l-127 -300h-200l127 300h-700l-127 -300h-200l127 300h-185zM612 500h700l171 400h-700z" />
<glyph unicode="$" d="M128 200h650l56 400h-400l-215 250l43 300l285 250h400l28 200h200l-28 -200h550l72 -200h-650l-57 -400h400l215 -250l-42 -300l-285 -250h-400l-28 -200h-200l28 200h-550zM426 900l86 -100h350l57 400h-350l-114 -100zM978 200h350l114 100l28 200l-86 100h-350z" />
<glyph unicode="%" horiz-adv-x="2100" d="M219 850l43 300l285 250h300l215 -250l-43 -300l-285 -250h-300zM300 0l1447 1400h250l-1447 -1400h-250zM426 900l86 -100h200l114 100l29 200l-86 100h-200l-114 -100zM1235 250l42 300l285 250h300l215 -250l-42 -300l-285 -250h-300zM1442 300l86 -100h200l114 100 l28 200l-86 100h-200l-114 -100z" />
<glyph unicode="&#x26;" d="M135 250l42 300l171 150l-129 150l43 300l285 250h950l72 -200h-1000l-114 -100l-29 -200l86 -100h800l-28 -200h-800l-114 -100l-28 -200l86 -100h900l114 100l70 500h200l-77 -550l-285 -250h-1000z" />
<glyph unicode="'" horiz-adv-x="400" d="M226 900l71 500h200l-63 -450z" />
<glyph unicode="(" horiz-adv-x="900" d="M135 250l127 900l285 250h350l72 -200h-400l-114 -100l-113 -800l86 -100h400l-128 -200h-350z" />
<glyph unicode=")" horiz-adv-x="900" d="M128 200h400l114 100l113 800l-86 100h-400l128 200h350l215 -250l-127 -900l-285 -250h-350z" />
<glyph unicode="*" horiz-adv-x="863" d="M229 915l217 135l-179 135l101 124l156 -117l29 208h150l-30 -209l190 118l67 -124l-218 -135l180 -135l-102 -124l-156 118l-30 -209h-150l30 208l-189 -117z" />
<glyph unicode="+" horiz-adv-x="1100" d="M184 600l28 200h350l50 350h200l-50 -350h350l-28 -200h-350l-49 -350h-200l49 350h-350z" />
<glyph unicode="," horiz-adv-x="400" d="M58 -300l70 500h200l-63 -450z" />
<glyph unicode="-" horiz-adv-x="1100" d="M184 600l28 200h900l-28 -200h-900z" />
<glyph unicode="." horiz-adv-x="400" d="M100 0l28 200h200l-28 -200h-200z" />
<glyph unicode="/" horiz-adv-x="900" d="M100 0l677 1400h220l-677 -1400h-220z" />
<glyph unicode="0" d="M135 250l127 900l285 250h1000l215 -250l-127 -900l-285 -250h-1000zM342 300l1077 900h-850l-114 -100zM478 200h850l114 100l113 800z" />
<glyph unicode="1" horiz-adv-x="700" d="M269 1200l128 200h400l-197 -1400h-200l169 1200h-300z" />
<glyph unicode="2" d="M100 0l77 550l285 250h950l114 100l29 200l-86 100h-1200l128 200h1150l215 -250l-43 -300l-285 -250h-950l-114 -100l-42 -300h1300l-28 -200h-1500z" />
<glyph unicode="3" d="M128 200h1200l114 100l28 200l-86 100h-1200l28 200h1200l114 100l29 200l-86 100h-1200l128 200h1150l215 -250l-43 -300l-171 -150l129 -150l-42 -300l-285 -250h-1150z" />
<glyph unicode="4" d="M219 850l78 550h200l-71 -500l86 -100h1000l85 600h200l-197 -1400h-200l84 600h-1050z" />
<glyph unicode="5" d="M128 200h1200l114 100l28 200l-86 100h-1200l113 800h1500l-28 -200h-1300l-57 -400h1050l215 -250l-42 -300l-285 -250h-1150z" />
<glyph unicode="6" d="M135 250l127 900l285 250h1150l72 -200h-1200l-114 -100l-113 -800l86 -100h900l114 100l28 200l-86 100h-900l28 200h950l215 -250l-42 -300l-285 -250h-1000z" />
<glyph unicode="7" d="M100 0l1399 1200h-1230l128 200h1400l-28 -200l-1399 -1200h-270z" />
<glyph unicode="8" d="M135 250l42 300l171 150l-129 150l43 300l285 250h1000l215 -250l-43 -300l-171 -150l129 -150l-42 -300l-285 -250h-1000zM342 300l86 -100h900l114 100l28 200l-86 100h-900l-114 -100zM426 900l86 -100h900l114 100l29 200l-86 100h-900l-114 -100z" />
<glyph unicode="9" d="M128 200h1200l114 100l113 800l-86 100h-900l-114 -100l-29 -200l86 -100h900l-28 -200h-950l-215 250l43 300l285 250h1000l215 -250l-127 -900l-285 -250h-1150z" />
<glyph unicode=":" horiz-adv-x="400" d="M100 0l28 200h200l-28 -200h-200zM226 900l29 200h200l-29 -200h-200z" />
<glyph unicode=";" horiz-adv-x="400" d="M58 -300l70 500h200l-63 -450zM226 900l29 200h200l-29 -200h-200z" />
<glyph unicode="&#x3c;" horiz-adv-x="1100" d="M184 600l28 200l957 400l-33 -230l-708 -270l632 -270l-32 -230z" />
<glyph unicode="=" horiz-adv-x="1100" d="M142 300l28 200h900l-28 -200h-900zM226 900l29 200h900l-29 -200h-900z" />
<glyph unicode="&#x3e;" horiz-adv-x="1100" d="M128 200l32 230l708 270l-632 270l33 230l843 -400l-28 -200z" />
<glyph unicode="?" d="M269 1200l128 200h1150l215 -250l-43 -300l-285 -250h-650l-114 -100l-14 -100h-200l21 150l285 250h650l114 100l29 200l-86 100h-1200zM400 0l28 200h200l-28 -200h-200z" />
<glyph unicode="@" horiz-adv-x="1701" d="M135 250l127 900l285 250h1000l215 -250l-78 -550l-285 -250h-320l75 530h-300l-69 -60l-35 -250l43 -50h210l-24 -170h-280l-129 150l56 400l172 150h550l-74 -520h100l115 100l66 470l-86 100h-900l-114 -100l-113 -800l86 -100h1201l-129 -200h-1150z" />
<glyph unicode="A" d="M100 0l155 1100l742 300h100l658 -300l-155 -1100h-200l70 500h-1000l28 200h1000l40 280l-472 200h-100l-528 -200l-138 -980h-200z" />
<glyph unicode="B" d="M100 0l197 1400h1220l215 -250l-43 -300l-154 -135l142 -165l-42 -300l-285 -250h-1250zM328 200h1000l114 100l28 200l-86 100h-900l28 200h870l114 100l29 200l-86 100h-970z" />
<glyph unicode="C" d="M135 250l127 900l285 250h1150l72 -200h-1200l-114 -100l-113 -800l86 -100h1200l-128 -200h-1150z" />
<glyph unicode="D" d="M100 0l197 1400h1250l215 -250l-127 -900l-285 -250h-1250zM328 200h1000l114 100l113 800l-86 100h-1000z" />
<glyph unicode="E" d="M135 250l127 900l285 250h1150l72 -200h-1200l-114 -100l-43 -300h1300l-28 -200h-1300l-42 -300l86 -100h1200l-128 -200h-1150z" />
<glyph unicode="F" d="M100 0l162 1150l285 250h1150l72 -200h-1200l-114 -100l-43 -300h1300l-28 -200h-1300l-84 -600h-200z" />
<glyph unicode="G" d="M135 250l127 900l285 250h1150l72 -200h-1200l-114 -100l-113 -800l86 -100h900l114 100l42 300h-600l28 200l801 1l-78 -551l-285 -250h-1000z" />
<glyph unicode="H" d="M100 0l197 1400h200l-85 -600h1100l85 600h200l-197 -1400h-200l84 600h-1100l-84 -600h-200z" />
<glyph unicode="I" horiz-adv-x="400" d="M100 0l197 1400h200l-197 -1400h-200z" />
<glyph unicode="J" d="M128 200h1200l114 100l155 1100h200l-162 -1150l-285 -250h-1150z" />
<glyph unicode="K" d="M100 0l197 1400h200l-85 -600h700l465 600h220l-465 -600h130l215 -250l-77 -550h-200l70 500l-86 100h-1000l-84 -600h-200z" />
<glyph unicode="L" d="M135 250l162 1150h200l-155 -1100l86 -100h1200l-128 -200h-1150z" />
<glyph unicode="M" horiz-adv-x="1900" d="M100 0l162 1150l285 250h1200l215 -250l-162 -1150h-200l155 1100l-86 100h-450l-169 -1200h-200l169 1200h-450l-114 -100l-155 -1100h-200z" />
<glyph unicode="N" d="M100 0l162 1150l285 250h1000l215 -250l-162 -1150h-200l155 1100l-86 100h-900l-114 -100l-155 -1100h-200z" />
<glyph unicode="O" d="M135 250l127 900l285 250h1000l215 -250l-127 -900l-285 -250h-1000zM342 300l86 -100h900l114 100l113 800l-86 100h-900l-114 -100z" />
<glyph unicode="P" d="M100 0l197 1400h1250l215 -250l-57 -400l-285 -250h-950l28 200h900l114 100l43 300l-86 100h-1000l-169 -1200h-200z" />
<glyph unicode="Q" d="M135 250l127 900l285 250h1000l215 -250l-127 -900l-247 -217l84 -233h-200l-72 200h-850zM342 300l86 -100h700l-72 200h200l72 -200l114 100l113 800l-86 100h-900l-114 -100z" />
<glyph unicode="R" d="M100 0l197 1400h1250l215 -250l-57 -400l-171 -150l129 -150l-63 -450h-200l56 400l-86 100h-900l28 200h900l114 100l43 300l-86 100h-1000l-169 -1200h-200z" />
<glyph unicode="S" d="M128 200h1200l114 100l28 200l-86 100h-950l-215 250l43 300l285 250h1150l72 -200h-1200l-114 -100l-29 -200l86 -100h950l215 -250l-42 -300l-285 -250h-1150z" />
<glyph unicode="T" d="M269 1200l28 200h1500l-28 -200h-650l-169 -1200h-200l169 1200h-650z" />
<glyph unicode="U" d="M135 250l162 1150h200l-155 -1100l86 -100h900l114 100l155 1100h200l-162 -1150l-285 -250h-1000z" />
<glyph unicode="V" d="M142 300l155 1100h200l-138 -980l472 -200h100l528 200l138 980h200l-155 -1100l-742 -300h-100z" />
<glyph unicode="W" horiz-adv-x="1900" d="M135 250l162 1150h200l-155 -1100l86 -100h450l169 1200h200l-169 -1200h450l114 100l155 1100h200l-162 -1150l-285 -250h-1200z" />
<glyph unicode="X" d="M100 0l723 700l-526 700h250l421 -560l579 560h250l-724 -700l527 -700h-250l-421 560l-579 -560h-250z" />
<glyph unicode="Y" d="M212 800l85 600h200l-68 -480l472 -200h100l528 200l68 480h200l-85 -600l-689 -279l-73 -521h-200l73 521z" />
<glyph unicode="Z" d="M100 0l28 200l1341 1000h-1200l28 200h1500l-28 -200l-1341 -1000h1200l-28 -200h-1500z" />
<glyph unicode="[" horiz-adv-x="900" d="M100 0l197 1400h600l72 -200h-500l-141 -1000h500l-128 -200h-600z" />
<glyph unicode="\" horiz-adv-x="900" d="M297 1400h220l283 -1400h-220z" />
<glyph unicode="]" horiz-adv-x="900" d="M128 200h500l141 1000h-500l128 200h600l-197 -1400h-600z" />
<glyph unicode="^" horiz-adv-x="1100" d="M212 800l455 600h160l285 -600h-230l-163 400l-277 -400h-230z" />
<glyph unicode="_" horiz-adv-x="900" d="M-56 -400l28 200h900l-28 -200h-900z" />
<glyph unicode="`" horiz-adv-x="600" d="M318 1550h210l148 -300h-210z" />
<glyph unicode="a" horiz-adv-x="1500" d="M135 250l21 150l285 250h750l-28 -200h-700l-114 -100l-7 -50l86 -100h700l114 100l70 500l-86 100h-900l129 200h850l214 -250l-84 -600l-285 -250h-800z" />
<glyph unicode="b" horiz-adv-x="1500" d="M135 250l162 1150h200l-155 -1100l86 -100h700l114 100l70 500l-86 100h-700l29 200h750l214 -250l-84 -600l-285 -250h-800z" />
<glyph unicode="c" horiz-adv-x="1500" d="M135 250l84 600l286 250h950l71 -200h-1000l-114 -100l-70 -500l86 -100h1000l-128 -200h-950z" />
<glyph unicode="d" horiz-adv-x="1500" d="M135 250l84 600l286 250h750l-29 -200h-700l-114 -100l-70 -500l86 -100h700l114 100l155 1100h200l-162 -1150l-285 -250h-800z" />
<glyph unicode="e" horiz-adv-x="1500" d="M135 250l84 600l286 250h800l214 -250l-21 -150l-285 -250h-750l28 200h700l114 100l7 50l-86 100h-700l-114 -100l-70 -500l86 -100h900l-128 -200h-850z" />
<glyph unicode="f" horiz-adv-x="1200" d="M212 800l29 200h200l21 150l285 250h450l72 -200h-500l-114 -100l-14 -100h600l-29 -200h-600l-112 -800h-200l112 800h-200z" />
<glyph unicode="g" horiz-adv-x="1500" d="M198 700l21 150l286 250h800l214 -250l-84 -600l-285 -250h-850l-72 200h900l114 100l70 500l-86 100h-700l-114 -100l-7 -50l86 -100h700l-28 -200h-750z" />
<glyph unicode="h" horiz-adv-x="1500" d="M100 0l197 1400h200l-42 -300h850l214 -250l-119 -850h-200l112 800l-86 100h-800l-126 -900h-200z" />
<glyph unicode="i" horiz-adv-x="400" d="M100 0l141 1000h200l-141 -1000h-200zM269 1200l28 200h200l-28 -200h-200z" />
<glyph unicode="j" horiz-adv-x="1200" d="M128 200h700l114 100l99 700h200l-106 -750l-285 -250h-650zM1069 1200l28 200h200l-28 -200h-200z" />
<glyph unicode="k" horiz-adv-x="1500" d="M100 0l197 1400h200l-99 -700h600l337 400h220l-337 -400h30l215 -250l-63 -450h-200l56 400l-86 100h-800l-70 -500h-200z" />
<glyph unicode="l" horiz-adv-x="400" d="M100 0l197 1400h200l-197 -1400h-200z" />
<glyph unicode="m" d="M100 0l119 850l286 250h1000l214 -250l-119 -850h-200l112 800l-86 100h-350l-126 -900h-200l126 900h-350l-114 -100l-112 -800h-200z" />
<glyph unicode="n" horiz-adv-x="1500" d="M100 0l119 850l286 250h800l214 -250l-119 -850h-200l112 800l-86 100h-700l-114 -100l-112 -800h-200z" />
<glyph unicode="o" horiz-adv-x="1500" d="M135 250l84 600l286 250h800l214 -250l-84 -600l-285 -250h-800zM342 300l86 -100h700l114 100l70 500l-86 100h-700l-114 -100z" />
<glyph unicode="p" horiz-adv-x="1500" d="M100 0l119 850l286 250h800l214 -250l-42 -300l-285 -250h-750l28 200h700l114 100l28 200l-86 100h-700l-114 -100l-112 -800h-200z" />
<glyph unicode="q" horiz-adv-x="1500" d="M177 550l42 300l286 250h800l214 -250l-119 -850h-200l112 800l-86 100h-700l-114 -100l-28 -200l86 -100h700l-28 -200h-750z" />
<glyph unicode="r" horiz-adv-x="1200" d="M100 0l119 850l286 250h650l71 -200h-700l-114 -100l-112 -800h-200z" />
<glyph unicode="s" horiz-adv-x="1500" d="M128 200h1000l114 100l7 50l-86 100h-750l-215 250l21 150l286 250h950l71 -200h-1000l-114 -100l-7 -50l86 -100h750l215 -250l-21 -150l-285 -250h-950z" />
<glyph unicode="t" horiz-adv-x="1200" d="M226 900l29 200h200l28 200l214 100l-42 -300h600l-29 -200h-600l-84 -600l86 -100h500l-128 -200h-450l-215 250l91 650h-200z" />
<glyph unicode="u" horiz-adv-x="1500" d="M135 250l120 850h200l-113 -800l86 -100h700l114 100l113 800h200l-120 -850l-285 -250h-800z" />
<glyph unicode="v" horiz-adv-x="1500" d="M142 300l113 800h200l-96 -680l372 -200h100l428 200l96 680h200l-113 -800l-642 -300h-100z" />
<glyph unicode="w" d="M135 250l120 850h200l-113 -800l86 -100h350l127 900h200l-127 -900h350l114 100l113 800h200l-120 -850l-285 -250h-1000z" />
<glyph unicode="x" horiz-adv-x="1500" d="M100 0l602 550l-447 550h250l341 -419l459 419h250l-603 -550l448 -550h-250l-341 419l-459 -419h-250z" />
<glyph unicode="y" horiz-adv-x="1500" d="M198 700l57 400h200l-50 -350l86 -100h800l64 450h200l-120 -850l-285 -250h-850l-72 200h900l114 100l21 150h-850z" />
<glyph unicode="z" horiz-adv-x="1500" d="M100 0l28 200l1068 700h-970l29 200h1300l-29 -200l-1068 -700h970l-28 -200h-1300z" />
<glyph unicode="{" horiz-adv-x="1400" d="M184 600l28 200h400l114 100l36 250l285 250h350l72 -200h-400l-114 -100l-36 -250l-171 -150l129 -150l-35 -250l86 -100h400l-128 -200h-350l-215 250l35 250l-86 100h-400z" />
<glyph unicode="|" horiz-adv-x="400" d="M100 0l197 1400h200l-197 -1400h-200z" />
<glyph unicode="}" horiz-adv-x="1400" d="M128 200h400l114 100l35 250l171 150l-129 150l36 250l-86 100h-400l128 200h350l215 -250l-36 -250l86 -100h400l-28 -200h-400l-114 -100l-35 -250l-285 -250h-350z" />
<glyph unicode="~" horiz-adv-x="1300" d="M170 500l21 150l285 250h220l172 -200h130l114 100l14 100h200l-21 -150l-285 -250h-230l-172 200h-120l-114 -100l-14 -100h-200z" />
<glyph unicode="&#xa1;" horiz-adv-x="400" d="M58 -300l140 1000h200l-140 -1000h-200zM226 900l29 200h200l-29 -200h-200z" />
<glyph unicode="&#xa2;" horiz-adv-x="1500" d="M177 550l85 600l285 250h400l28 200h200l-28 -200h350l72 -200h-450l-99 -700h450l-128 -200h-350l-28 -200h-200l28 200h-400zM384 600l86 -100h350l99 700h-350l-114 -100z" />
<glyph unicode="&#xa3;" d="M100 0l28 200h200l56 400h-200l28 200h200l50 350l285 250h750l72 -200h-800l-114 -100l-43 -300h700l-28 -200h-700l-56 -400h800l114 100l14 100h200l-21 -150l-285 -250h-1250z" />
<glyph unicode="&#xa5;" d="M212 800l85 600h200l-68 -480l472 -200h100l528 200l68 480h200l-85 -600l-689 -279l-3 -21h450l-21 -150h-450l-14 -100h450l-21 -150h-450l-14 -100h-200l14 100h-450l21 150h450l14 100h-450l21 150h450l3 21z" />
<glyph unicode="&#xa6;" horiz-adv-x="400" d="M100 0l84 600h200l-84 -600h-200zM212 800l85 600h200l-85 -600h-200z" />
<glyph unicode="&#xa8;" horiz-adv-x="800" d="M276 1250l28 200h200l-28 -200h-200zM676 1250l28 200h200l-28 -200h-200z" />
<glyph unicode="&#xa9;" d="M135 250l127 900l285 250h1000l215 -250l-127 -900l-285 -250h-1000zM342 300l86 -100h900l114 100l113 800l-86 100h-900l-114 -100zM570 500l56 400l172 150h450l76 -170h-470l-69 -60l-35 -250l43 -50h480l-124 -170h-450z" />
<glyph unicode="&#xab;" horiz-adv-x="1100" d="M184 600l28 200l457 400l-35 -250l-286 -250l215 -250l-35 -250zM684 600l28 200l457 400l-35 -250l-286 -250l215 -250l-35 -250z" />
<glyph unicode="&#xac;" horiz-adv-x="1100" d="M184 600l28 200h900l-77 -550h-200l49 350h-700z" />
<glyph unicode="&#xad;" horiz-adv-x="1100" d="M184 600l28 200h900l-28 -200h-900z" />
<glyph unicode="&#xae;" d="M135 250l127 900l285 250h1000l215 -250l-127 -900l-285 -250h-1000zM342 300l86 -100h900l114 100l113 800l-86 100h-900l-114 -100zM549 350l99 700h550l128 -150l-26 -190l-91 -80l68 -80l-29 -210h-170l21 150l-52 60h-300l-28 -200h-170zM771 720h310l57 50l7 50 l-51 60h-300z" />
<glyph unicode="&#xb0;" horiz-adv-x="1000" d="M219 850l43 300l285 250h300l215 -250l-43 -300l-285 -250h-300zM426 900l86 -100h200l114 100l29 200l-86 100h-200l-114 -100z" />
<glyph unicode="&#xb1;" horiz-adv-x="1100" d="M100 0l28 200h900l-28 -200h-900zM191 650l28 200h350l50 350h200l-50 -350h350l-28 -200h-350l-49 -350h-200l49 350h-350z" />
<glyph unicode="&#xb4;" horiz-adv-x="600" d="M276 1250l232 300h210l-232 -300h-210z" />
<glyph unicode="&#xb5;" horiz-adv-x="1500" d="M100 0l155 1100h200l-92 -650h800l114 100l78 550h200l-85 -600l-285 -250h-850l-35 -250h-200z" />
<glyph unicode="&#xb6;" d="M205 750l57 400l285 250h1250l-197 -1400h-200l169 1200h-300l-169 -1200h-200l70 500h-550z" />
<glyph unicode="&#xb7;" horiz-adv-x="400" d="M184 600l28 200h200l-28 -200h-200z" />
<glyph unicode="&#xb8;" horiz-adv-x="600" d="M37 -450l232 300h210l-232 -300h-210z" />
<glyph unicode="&#xbb;" horiz-adv-x="1100" d="M128 200l35 250l285 250l-214 250l35 250l343 -400l-28 -200zM628 200l35 250l285 250l-214 250l35 250l343 -400l-28 -200z" />
<glyph unicode="&#xbf;" d="M93 -50l42 300l285 250h650l114 100l14 100h200l-21 -150l-285 -250h-650l-114 -100l-28 -200l86 -100h1200l-128 -200h-1150zM1226 900l29 200h200l-29 -200h-200z" />
<glyph unicode="&#xc0;" d="M100 0l155 1100l742 300h100l658 -300l-155 -1100h-200l70 500h-1000l28 200h1000l40 280l-472 200h-100l-528 -200l-138 -980h-200zM843 1850h210l148 -300h-210z" />
<glyph unicode="&#xc1;" d="M100 0l155 1100l742 300h100l658 -300l-155 -1100h-200l70 500h-1000l28 200h1000l40 280l-472 200h-100l-528 -200l-138 -980h-200zM935 1550l232 300h210l-232 -300h-210z" />
<glyph unicode="&#xc2;" d="M100 0l155 1100l742 300h100l658 -300l-155 -1100h-200l70 500h-1000l28 200h1000l40 280l-472 200h-100l-528 -200l-138 -980h-200zM718 1550l262 300h260l178 -300h-230l-92 200l-148 -200h-230z" />
<glyph unicode="&#xc3;" d="M100 0l155 1100l742 300h100l658 -300l-155 -1100h-200l70 500h-1000l28 200h1000l40 280l-472 200h-100l-528 -200l-138 -980h-200zM583 1550l21 150l228 200h220l155 -180h120l91 80l14 100h170l-21 -150l-228 -200h-218l-3 -4l-154 184h-120l-91 -80l-14 -100h-170z " />
<glyph unicode="&#xc4;" d="M100 0l155 1100l742 300h100l658 -300l-155 -1100h-200l70 500h-1000l28 200h1000l40 280l-472 200h-100l-528 -200l-138 -980h-200zM768 1550l28 200h200l-28 -200h-200zM1168 1550l28 200h200l-28 -200h-200z" />
<glyph unicode="&#xc5;" d="M100 0l155 1100l742 300h100l658 -300l-155 -1100h-200l70 500h-1000l28 200h1000l40 280l-472 200h-100l-528 -200l-138 -980h-200zM814 1700l28 200l171 150h250l129 -150l-28 -200l-171 -150h-250zM971 1750l43 -50h150l57 50l14 100l-43 50h-150l-57 -50z" />
<glyph unicode="&#xc6;" horiz-adv-x="3000" d="M100 0l155 1100l742 300h100l493 -225l257 225h1150l72 -200h-1200l-114 -100l-43 -300h1300l-28 -200h-1300l-42 -300l86 -100h1200l-128 -200h-1150l-215 250l35 250h-1000l28 200h1000l40 280l-472 200h-100l-528 -200l-138 -980h-200z" />
<glyph unicode="&#xc7;" d="M135 250l127 900l285 250h1150l72 -200h-1200l-114 -100l-113 -800l86 -100h1200l-128 -200h-1150zM587 -450l232 300h210l-232 -300h-210z" />
<glyph unicode="&#xc8;" d="M135 250l127 900l285 250h1150l72 -200h-1200l-114 -100l-43 -300h1300l-28 -200h-1300l-42 -300l86 -100h1200l-128 -200h-1150zM843 1850h210l148 -300h-210z" />
<glyph unicode="&#xc9;" d="M135 250l127 900l285 250h1150l72 -200h-1200l-114 -100l-43 -300h1300l-28 -200h-1300l-42 -300l86 -100h1200l-128 -200h-1150zM935 1550l232 300h210l-232 -300h-210z" />
<glyph unicode="&#xca;" d="M135 250l127 900l285 250h1150l72 -200h-1200l-114 -100l-43 -300h1300l-28 -200h-1300l-42 -300l86 -100h1200l-128 -200h-1150zM718 1550l262 300h260l178 -300h-230l-92 200l-148 -200h-230z" />
<glyph unicode="&#xcb;" d="M135 250l127 900l285 250h1150l72 -200h-1200l-114 -100l-43 -300h1300l-28 -200h-1300l-42 -300l86 -100h1200l-128 -200h-1150zM768 1550l28 200h200l-28 -200h-200zM1168 1550l28 200h200l-28 -200h-200z" />
<glyph unicode="&#xcc;" horiz-adv-x="600" d="M267 0l197 1400h200l-197 -1400h-200zM360 1850h210l148 -300h-210z" />
<glyph unicode="&#xcd;" horiz-adv-x="600" d="M133 0l197 1400h200l-197 -1400h-200zM318 1550l232 300h210l-232 -300h-210z" />
<glyph unicode="&#xce;" horiz-adv-x="900" d="M318 1550l262 300h260l178 -300h-230l-92 200l-148 -200h-230zM350 0l197 1400h200l-197 -1400h-200z" />
<glyph unicode="&#xcf;" horiz-adv-x="800" d="M300 0l197 1400h200l-197 -1400h-200zM318 1550l28 200h200l-28 -200h-200zM718 1550l28 200h200l-28 -200h-200z" />
<glyph unicode="&#xd0;" horiz-adv-x="1900" d="M184 600l28 200h200l85 600h1250l215 -250l-127 -900l-285 -250h-1250l84 600h-200zM528 200h1000l114 100l113 800l-86 100h-1000l-57 -400h600l-28 -200h-600z" />
<glyph unicode="&#xd1;" d="M100 0l162 1150l285 250h1000l215 -250l-162 -1150h-200l155 1100l-86 100h-900l-114 -100l-155 -1100h-200zM583 1550l21 150l228 200h220l155 -180h120l91 80l14 100h170l-21 -150l-228 -200h-218l-3 -4l-154 184h-120l-91 -80l-14 -100h-170z" />
<glyph unicode="&#xd2;" d="M135 250l127 900l285 250h1000l215 -250l-127 -900l-285 -250h-1000zM342 300l86 -100h900l114 100l113 800l-86 100h-900l-114 -100zM843 1850h210l148 -300h-210z" />
<glyph unicode="&#xd3;" d="M135 250l127 900l285 250h1000l215 -250l-127 -900l-285 -250h-1000zM342 300l86 -100h900l114 100l113 800l-86 100h-900l-114 -100zM935 1550l232 300h210l-232 -300h-210z" />
<glyph unicode="&#xd4;" d="M135 250l127 900l285 250h1000l215 -250l-127 -900l-285 -250h-1000zM342 300l86 -100h900l114 100l113 800l-86 100h-900l-114 -100zM718 1550l262 300h260l178 -300h-230l-92 200l-148 -200h-230z" />
<glyph unicode="&#xd5;" d="M135 250l127 900l285 250h1000l215 -250l-127 -900l-285 -250h-1000zM342 300l86 -100h900l114 100l113 800l-86 100h-900l-114 -100zM583 1550l21 150l228 200h220l155 -180h120l91 80l14 100h170l-21 -150l-228 -200h-218l-3 -4l-154 184h-120l-91 -80l-14 -100h-170z " />
<glyph unicode="&#xd6;" d="M135 250l127 900l285 250h1000l215 -250l-127 -900l-285 -250h-1000zM342 300l86 -100h900l114 100l113 800l-86 100h-900l-114 -100zM768 1550l28 200h200l-28 -200h-200zM1168 1550l28 200h200l-28 -200h-200z" />
<glyph unicode="&#xd7;" horiz-adv-x="958" d="M162 442l293 257l-221 257l140 122l219 -258l295 258l104 -121l-294 -258l222 -258l-138 -121l-223 257l-293 -257z" />
<glyph unicode="&#xd8;" d="M135 250l127 900l285 250h1000l215 -250l-127 -900l-285 -250h-1000zM342 300l1077 900h-850l-114 -100zM478 200h850l114 100l113 800z" />
<glyph unicode="&#xd9;" d="M135 250l162 1150h200l-155 -1100l86 -100h900l114 100l155 1100h200l-162 -1150l-285 -250h-1000zM843 1850h210l148 -300h-210z" />
<glyph unicode="&#xda;" d="M135 250l162 1150h200l-155 -1100l86 -100h900l114 100l155 1100h200l-162 -1150l-285 -250h-1000zM935 1550l232 300h210l-232 -300h-210z" />
<glyph unicode="&#xdb;" d="M135 250l162 1150h200l-155 -1100l86 -100h900l114 100l155 1100h200l-162 -1150l-285 -250h-1000zM718 1550l262 300h260l178 -300h-230l-92 200l-148 -200h-230z" />
<glyph unicode="&#xdc;" d="M135 250l162 1150h200l-155 -1100l86 -100h900l114 100l155 1100h200l-162 -1150l-285 -250h-1000zM768 1550l28 200h200l-28 -200h-200zM1168 1550l28 200h200l-28 -200h-200z" />
<glyph unicode="&#xdd;" d="M212 800l85 600h200l-68 -480l472 -200h100l528 200l68 480h200l-85 -600l-689 -279l-73 -521h-200l73 521zM935 1550l232 300h210l-232 -300h-210z" />
<glyph unicode="&#xde;" d="M100 0l197 1400h200l-35 -250h1050l214 -250l-56 -400l-285 -250h-950l28 200h900l114 100l42 300l-85 100h-1000l-134 -950h-200z" />
<glyph unicode="&#xdf;" d="M100 0l162 1150l285 250h970l215 -250l-43 -300l-154 -135l142 -165l-42 -300l-285 -250h-950l28 200h900l114 100l28 200l-86 100h-900l28 200h870l114 100l29 200l-86 100h-870l-114 -100l-155 -1100h-200z" />
<glyph unicode="&#xe0;" horiz-adv-x="1500" d="M135 250l21 150l285 250h750l-28 -200h-700l-114 -100l-7 -50l86 -100h700l114 100l70 500l-86 100h-900l129 200h850l214 -250l-84 -600l-285 -250h-800zM701 1550h210l148 -300h-210z" />
<glyph unicode="&#xe1;" horiz-adv-x="1500" d="M135 250l21 150l285 250h750l-28 -200h-700l-114 -100l-7 -50l86 -100h700l114 100l70 500l-86 100h-900l129 200h850l214 -250l-84 -600l-285 -250h-800zM793 1250l232 300h210l-232 -300h-210z" />
<glyph unicode="&#xe2;" horiz-adv-x="1500" d="M135 250l21 150l285 250h750l-28 -200h-700l-114 -100l-7 -50l86 -100h700l114 100l70 500l-86 100h-900l129 200h850l214 -250l-84 -600l-285 -250h-800zM576 1250l262 300h260l178 -300h-230l-92 200l-148 -200h-230z" />
<glyph unicode="&#xe3;" horiz-adv-x="1500" d="M135 250l21 150l285 250h750l-28 -200h-700l-114 -100l-7 -50l86 -100h700l114 100l70 500l-86 100h-900l129 200h850l214 -250l-84 -600l-285 -250h-800zM441 1250l21 150l228 200h220l155 -180h120l91 80l14 100h170l-21 -150l-228 -200h-218l-3 -4l-154 184h-120 l-91 -80l-14 -100h-170z" />
<glyph unicode="&#xe4;" horiz-adv-x="1500" d="M135 250l21 150l285 250h750l-28 -200h-700l-114 -100l-7 -50l86 -100h700l114 100l70 500l-86 100h-900l129 200h850l214 -250l-84 -600l-285 -250h-800zM626 1250l28 200h200l-28 -200h-200zM1026 1250l28 200h200l-28 -200h-200z" />
<glyph unicode="&#xe5;" horiz-adv-x="1500" d="M135 250l21 150l285 250h750l-28 -200h-700l-114 -100l-7 -50l86 -100h700l114 100l70 500l-86 100h-900l129 200h850l214 -250l-84 -600l-285 -250h-800zM672 1400l28 200l171 150h250l129 -150l-28 -200l-171 -150h-250zM829 1450l43 -50h150l57 50l14 100l-43 50h-150 l-57 -50z" />
<glyph unicode="&#xe6;" horiz-adv-x="2600" d="M135 250l21 150l285 250h750l-28 -200h-700l-114 -100l-7 -50l86 -100h700l114 100l70 500l-86 100h-900l129 200h850l129 -150l171 150h800l214 -250l-21 -150l-285 -250h-750l28 200h700l114 100l7 50l-86 100h-700l-114 -100l-70 -500l86 -100h900l-128 -200h-850 l-129 150l-171 -150h-800z" />
<glyph unicode="&#xe7;" horiz-adv-x="1500" d="M135 250l84 600l286 250h950l71 -200h-1000l-114 -100l-70 -500l86 -100h1000l-128 -200h-950zM487 -450l232 300h210l-232 -300h-210z" />
<glyph unicode="&#xe8;" horiz-adv-x="1500" d="M135 250l84 600l286 250h800l214 -250l-21 -150l-285 -250h-750l28 200h700l114 100l7 50l-86 100h-700l-114 -100l-70 -500l86 -100h900l-128 -200h-850zM701 1550h210l148 -300h-210z" />
<glyph unicode="&#xe9;" horiz-adv-x="1500" d="M135 250l84 600l286 250h800l214 -250l-21 -150l-285 -250h-750l28 200h700l114 100l7 50l-86 100h-700l-114 -100l-70 -500l86 -100h900l-128 -200h-850zM793 1250l232 300h210l-232 -300h-210z" />
<glyph unicode="&#xea;" horiz-adv-x="1500" d="M135 250l84 600l286 250h800l214 -250l-21 -150l-285 -250h-750l28 200h700l114 100l7 50l-86 100h-700l-114 -100l-70 -500l86 -100h900l-128 -200h-850zM576 1250l262 300h260l178 -300h-230l-92 200l-148 -200h-230z" />
<glyph unicode="&#xeb;" horiz-adv-x="1500" d="M135 250l84 600l286 250h800l214 -250l-21 -150l-285 -250h-750l28 200h700l114 100l7 50l-86 100h-700l-114 -100l-70 -500l86 -100h900l-128 -200h-850zM626 1250l28 200h200l-28 -200h-200zM1026 1250l28 200h200l-28 -200h-200z" />
<glyph unicode="&#xec;" horiz-adv-x="600" d="M267 0l155 1100h200l-155 -1100h-200zM318 1550h210l148 -300h-210z" />
<glyph unicode="&#xed;" horiz-adv-x="600" d="M133 0l155 1100h200l-155 -1100h-200zM276 1250l232 300h210l-232 -300h-210z" />
<glyph unicode="&#xee;" horiz-adv-x="900" d="M276 1250l262 300h260l178 -300h-230l-92 200l-148 -200h-230zM350 0l155 1100h200l-155 -1100h-200z" />
<glyph unicode="&#xef;" horiz-adv-x="800" d="M276 1250l28 200h200l-28 -200h-200zM300 0l155 1100h200l-155 -1100h-200zM676 1250l28 200h200l-28 -200h-200z" />
<glyph unicode="&#xf0;" d="M135 250l56 400l285 250h750l-28 -200h-700l-114 -100l-42 -300l86 -100h700l114 100l113 800h-600l21 150h600l21 150h200l-21 -150h200l-21 -150h-200l-120 -850l-285 -250h-800z" />
<glyph unicode="&#xf1;" horiz-adv-x="1500" d="M100 0l119 850l286 250h800l214 -250l-119 -850h-200l112 800l-86 100h-700l-114 -100l-112 -800h-200zM441 1250l21 150l228 200h220l155 -180h120l91 80l14 100h170l-21 -150l-228 -200h-218l-3 -4l-154 184h-120l-91 -80l-14 -100h-170z" />
<glyph unicode="&#xf2;" horiz-adv-x="1500" d="M135 250l84 600l286 250h800l214 -250l-84 -600l-285 -250h-800zM342 300l86 -100h700l114 100l70 500l-86 100h-700l-114 -100zM701 1550h210l148 -300h-210z" />
<glyph unicode="&#xf3;" horiz-adv-x="1500" d="M135 250l84 600l286 250h800l214 -250l-84 -600l-285 -250h-800zM342 300l86 -100h700l114 100l70 500l-86 100h-700l-114 -100zM793 1250l232 300h210l-232 -300h-210z" />
<glyph unicode="&#xf4;" horiz-adv-x="1500" d="M135 250l84 600l286 250h800l214 -250l-84 -600l-285 -250h-800zM342 300l86 -100h700l114 100l70 500l-86 100h-700l-114 -100zM576 1250l262 300h260l178 -300h-230l-92 200l-148 -200h-230z" />
<glyph unicode="&#xf5;" horiz-adv-x="1500" d="M135 250l84 600l286 250h800l214 -250l-84 -600l-285 -250h-800zM342 300l86 -100h700l114 100l70 500l-86 100h-700l-114 -100zM441 1250l21 150l228 200h220l155 -180h120l91 80l14 100h170l-21 -150l-228 -200h-218l-3 -4l-154 184h-120l-91 -80l-14 -100h-170z" />
<glyph unicode="&#xf6;" horiz-adv-x="1500" d="M135 250l84 600l286 250h800l214 -250l-84 -600l-285 -250h-800zM342 300l86 -100h700l114 100l70 500l-86 100h-700l-114 -100zM626 1250l28 200h200l-28 -200h-200zM1026 1250l28 200h200l-28 -200h-200z" />
<glyph unicode="&#xf7;" horiz-adv-x="1100" d="M184 600l28 200h900l-28 -200h-900zM471 150l28 200h200l-28 -200h-200zM598 1050l28 200h200l-28 -200h-200z" />
<glyph unicode="&#xf8;" horiz-adv-x="1500" d="M135 250l84 600l286 250h800l214 -250l-84 -600l-285 -250h-800zM342 300l3 -4l791 604h-610l-114 -100zM498 200h630l114 100l70 500l-11 12z" />
<glyph unicode="&#xf9;" horiz-adv-x="1500" d="M135 250l120 850h200l-113 -800l86 -100h700l114 100l113 800h200l-120 -850l-285 -250h-800zM701 1550h210l148 -300h-210z" />
<glyph unicode="&#xfa;" horiz-adv-x="1500" d="M135 250l120 850h200l-113 -800l86 -100h700l114 100l113 800h200l-120 -850l-285 -250h-800zM793 1250l232 300h210l-232 -300h-210z" />
<glyph unicode="&#xfb;" horiz-adv-x="1500" d="M135 250l120 850h200l-113 -800l86 -100h700l114 100l113 800h200l-120 -850l-285 -250h-800zM576 1250l262 300h260l178 -300h-230l-92 200l-148 -200h-230z" />
<glyph unicode="&#xfc;" horiz-adv-x="1500" d="M135 250l120 850h200l-113 -800l86 -100h700l114 100l113 800h200l-120 -850l-285 -250h-800zM626 1250l28 200h200l-28 -200h-200zM1026 1250l28 200h200l-28 -200h-200z" />
<glyph unicode="&#xfd;" horiz-adv-x="1500" d="M198 700l57 400h200l-50 -350l86 -100h800l64 450h200l-120 -850l-285 -250h-850l-72 200h900l114 100l21 150h-850zM793 1250l232 300h210l-232 -300h-210z" />
<glyph unicode="&#xfe;" horiz-adv-x="1500" d="M100 0l197 1400h200l-42 -300h850l214 -250l-42 -300l-285 -250h-750l28 200h700l114 100l28 200l-86 100h-800l-126 -900h-200z" />
<glyph unicode="&#xff;" horiz-adv-x="1500" d="M198 700l57 400h200l-50 -350l86 -100h800l64 450h200l-120 -850l-285 -250h-850l-72 200h900l114 100l21 150h-850zM626 1250l28 200h200l-28 -200h-200zM1026 1250l28 200h200l-28 -200h-200z" />
<glyph unicode="&#x152;" horiz-adv-x="3000" d="M135 250l127 900l285 250h1000l129 -150l171 150h1150l72 -200h-1200l-114 -100l-43 -300h1300l-28 -200h-1300l-42 -300l86 -100h1200l-128 -200h-1150l-129 150l-171 -150h-1000zM342 300l86 -100h900l114 100l113 800l-86 100h-900l-114 -100z" />
<glyph unicode="&#x153;" horiz-adv-x="2600" d="M135 250l84 600l286 250h800l129 -150l171 150h800l214 -250l-21 -150l-285 -250h-750l28 200h700l114 100l7 50l-86 100h-700l-114 -100l-70 -500l86 -100h900l-128 -200h-850l-129 150l-171 -150h-800zM342 300l86 -100h700l114 100l70 500l-86 100h-700l-114 -100z " />
<glyph unicode="&#x178;" d="M212 800l85 600h200l-68 -480l472 -200h100l528 200l68 480h200l-85 -600l-689 -279l-73 -521h-200l73 521zM768 1550l28 200h200l-28 -200h-200zM1168 1550l28 200h200l-28 -200h-200z" />
<glyph unicode="&#x2c6;" horiz-adv-x="900" d="M276 1250l262 300h260l178 -300h-230l-92 200l-148 -200h-230z" />
<glyph unicode="&#x2dc;" horiz-adv-x="1170" d="M276 1250l21 150l228 200h220l155 -180h120l91 80l14 100h170l-21 -150l-228 -200h-218l-3 -4l-154 184h-120l-91 -80l-14 -100h-170z" />
<glyph unicode="&#x2000;" horiz-adv-x="1025" />
<glyph unicode="&#x2001;" horiz-adv-x="2050" />
<glyph unicode="&#x2002;" horiz-adv-x="1025" />
<glyph unicode="&#x2003;" horiz-adv-x="2050" />
<glyph unicode="&#x2004;" horiz-adv-x="683" />
<glyph unicode="&#x2005;" horiz-adv-x="512" />
<glyph unicode="&#x2006;" horiz-adv-x="341" />
<glyph unicode="&#x2007;" horiz-adv-x="341" />
<glyph unicode="&#x2008;" horiz-adv-x="256" />
<glyph unicode="&#x2009;" horiz-adv-x="410" />
<glyph unicode="&#x200a;" horiz-adv-x="113" />
<glyph unicode="&#x2010;" horiz-adv-x="1100" d="M184 600l28 200h900l-28 -200h-900z" />
<glyph unicode="&#x2011;" horiz-adv-x="1100" d="M184 600l28 200h900l-28 -200h-900z" />
<glyph unicode="&#x2012;" horiz-adv-x="1100" d="M184 600l28 200h900l-28 -200h-900z" />
<glyph unicode="&#x2013;" horiz-adv-x="1100" d="M184 600l28 200h900l-28 -200h-900z" />
<glyph unicode="&#x2014;" horiz-adv-x="1500" d="M184 600l28 200h1300l-28 -200h-1300z" />
<glyph unicode="&#x2018;" horiz-adv-x="400" d="M234 950l63 450h200l-71 -500z" />
<glyph unicode="&#x2019;" horiz-adv-x="400" d="M226 900l71 500h200l-63 -450z" />
<glyph unicode="&#x201a;" horiz-adv-x="400" d="M58 -300l70 500h200l-63 -450z" />
<glyph unicode="&#x201c;" horiz-adv-x="800" d="M234 950l63 450h200l-71 -500zM634 950l63 450h200l-71 -500z" />
<glyph unicode="&#x201d;" horiz-adv-x="800" d="M226 900l71 500h200l-63 -450zM626 900l71 500h200l-63 -450z" />
<glyph unicode="&#x201e;" horiz-adv-x="800" d="M58 -300l70 500h200l-63 -450zM458 -300l70 500h200l-63 -450z" />
<glyph unicode="&#x2022;" horiz-adv-x="600" d="M170 500l56 400h400l-56 -400h-400z" />
<glyph unicode="&#x2026;" horiz-adv-x="1200" d="M100 0l28 200h200l-28 -200h-200zM500 0l28 200h200l-28 -200h-200zM900 0l28 200h200l-28 -200h-200z" />
<glyph unicode="&#x202f;" horiz-adv-x="410" />
<glyph unicode="&#x2039;" horiz-adv-x="600" d="M184 600l28 200l457 400l-35 -250l-286 -250l215 -250l-35 -250z" />
<glyph unicode="&#x203a;" horiz-adv-x="600" d="M128 200l35 250l285 250l-214 250l35 250l343 -400l-28 -200z" />
<glyph unicode="&#x205f;" horiz-adv-x="512" />
<glyph unicode="&#x20ac;" d="M156 400l28 200h200l28 200h-200l29 200h200l21 150l285 250h950l72 -200h-1000l-114 -100l-14 -100h798l-95 -200h-732l-28 -200h667l-93 -200h-602l-14 -100l86 -100h1000l-128 -200h-950l-215 250l21 150h-200z" />
<glyph unicode="&#x2122;" horiz-adv-x="2050" d="M271 1220l26 180h800l-26 -180h-315l-73 -520h-170l73 520h-315zM1148 700l78 550l171 150h600l129 -150l-78 -550h-160l66 470l-51 60h-145l-75 -530h-170l75 530h-145l-57 -50l-68 -480h-170z" />
<glyph unicode="&#x25fc;" horiz-adv-x="1100" d="M0 0v1100h1100v-1100h-1100z" />
</font>
</defs>
</svg>
