<?xml version="1.0" standalone="no"?>
<!DOCTYPE svg PUBLIC "-//W3C//DTD SVG 1.1//EN" "http://www.w3.org/Graphics/SVG/1.1/DTD/svg11.dtd" >
<svg xmlns="http://www.w3.org/2000/svg">
<metadata></metadata>
<defs>
<font id="polentical_neonbold_italic" horiz-adv-x="1700" >
<font-face units-per-em="2048" ascent="1638" descent="-410" />
<missing-glyph horiz-adv-x="800" />
<glyph horiz-adv-x="2048" />
<glyph horiz-adv-x="2048" />
<glyph unicode="&#xd;" horiz-adv-x="2048" />
<glyph unicode=" "  horiz-adv-x="800" />
<glyph unicode="&#x09;" horiz-adv-x="800" />
<glyph unicode="&#xa0;" horiz-adv-x="800" />
<glyph unicode="!" horiz-adv-x="600" d="M100 0l42 300h400l-42 -300h-400zM170 500l127 900h400l-127 -900h-400z" />
<glyph unicode="&#x22;" horiz-adv-x="1200" d="M226 900l71 500h400l-63 -450zM826 900l71 500h400l-63 -450z" />
<glyph unicode="#" horiz-adv-x="1900" d="M142 300l42 300h262l93 200h-327l43 300h414l128 300h400l-128 -300h300l128 300h400l-128 -300h186l-43 -300h-273l-93 -200h338l-42 -300h-415l-127 -300h-400l127 300h-300l-127 -300h-400l127 300h-185zM846 600h300l93 200h-300z" />
<glyph unicode="$" d="M142 300h650l35 250h-400l-215 250l50 350l285 250h400l28 200h200l-28 -200h550l58 -300h-650l-36 -250h400l215 -250l-49 -350l-285 -250h-400l-28 -200h-200l28 200h-550zM634 950l85 -100h150l36 250h-150l-114 -100zM992 300h150l114 100l7 50l-86 100h-150z" />
<glyph unicode="%" horiz-adv-x="2100" d="M219 850l43 300l285 250h300l215 -250l-43 -300l-285 -250h-300zM300 0l1297 1400h400l-1297 -1400h-400zM484 950l85 -100h100l115 100l14 100l-86 100h-100l-114 -100zM1235 250l42 300l285 250h300l215 -250l-42 -300l-285 -250h-300zM1499 350l86 -100h100l114 100 l14 100l-86 100h-100l-114 -100z" />
<glyph unicode="&#x26;" d="M135 250l42 300l171 150l-129 150l43 300l285 250h950l58 -300h-800l-114 -100l-7 -50l85 -100h400l-42 -300h-400l-114 -100l-7 -50l86 -100h500l114 100l56 400h400l-77 -550l-285 -250h-1000z" />
<glyph unicode="'" horiz-adv-x="600" d="M226 900l71 500h400l-63 -450z" />
<glyph unicode="(" horiz-adv-x="900" d="M135 250l127 900l285 250h350l58 -300h-200l-114 -100l-85 -600l86 -100h200l-142 -300h-350z" />
<glyph unicode=")" horiz-adv-x="900" d="M142 300h200l114 100l85 600l-86 100h-200l142 300h350l215 -250l-127 -900l-285 -250h-350z" />
<glyph unicode="*" horiz-adv-x="1063" d="M229 915l217 135l-179 135l158 174l156 -117l22 158h250l-23 -159l190 118l110 -174l-218 -135l180 -135l-159 -174l-156 118l-23 -159h-250l23 158l-189 -117z" />
<glyph unicode="+" horiz-adv-x="1300" d="M177 550l42 300h350l43 300h400l-43 -300h350l-42 -300h-350l-42 -300h-400l42 300h-350z" />
<glyph unicode="," horiz-adv-x="600" d="M58 -300l70 500h400l-63 -450z" />
<glyph unicode="-" horiz-adv-x="1100" d="M177 550l42 300h900l-42 -300h-900z" />
<glyph unicode="." horiz-adv-x="600" d="M100 0l42 300h400l-42 -300h-400z" />
<glyph unicode="/" horiz-adv-x="1100" d="M100 0l677 1400h420l-677 -1400h-420z" />
<glyph unicode="0" d="M135 250l127 900l285 250h1000l215 -250l-127 -900l-285 -250h-1000zM570 500l535 600h-350l-114 -100zM792 300h350l114 100l70 500z" />
<glyph unicode="1" horiz-adv-x="800" d="M255 1100l142 300h500l-197 -1400h-400l155 1100h-200z" />
<glyph unicode="2" d="M100 0l84 600l285 250h750l115 100l7 50l-86 100h-1000l142 300h1150l215 -250l-50 -350l-285 -250h-750l-114 -100l-21 -150h1100l-42 -300h-1500z" />
<glyph unicode="3" d="M142 300h1000l114 100l7 50l-86 100h-1000l42 300h1000l115 100l7 50l-86 100h-1000l142 300h1150l215 -250l-43 -300l-171 -150l129 -150l-42 -300l-285 -250h-1150z" />
<glyph unicode="4" d="M212 800l85 600h400l-63 -450l85 -100h600l78 550h400l-197 -1400h-400l77 550h-850z" />
<glyph unicode="5" d="M142 300h1000l114 100l14 100l-86 100h-1000l113 800h1500l-42 -300h-1100l-29 -200h850l215 -250l-56 -400l-285 -250h-1150z" />
<glyph unicode="6" d="M135 250l127 900l285 250h1150l58 -300h-1000l-114 -100l-85 -600l86 -100h500l114 100l14 100l-86 100h-500l42 300h750l215 -250l-56 -400l-285 -250h-1000z" />
<glyph unicode="7" d="M100 0l1155 1100h-1000l142 300h1400l-42 -300l-1155 -1100h-500z" />
<glyph unicode="8" d="M135 250l42 300l171 150l-129 150l43 300l285 250h1000l215 -250l-43 -300l-171 -150l129 -150l-42 -300l-285 -250h-1000zM556 400l86 -100h500l114 100l7 50l-86 100h-500l-114 -100zM634 950l85 -100h500l115 100l7 50l-86 100h-500l-114 -100z" />
<glyph unicode="9" d="M142 300h1000l114 100l85 600l-86 100h-500l-114 -100l-15 -100l86 -100h500l-42 -300h-750l-215 250l57 400l285 250h1000l215 -250l-127 -900l-285 -250h-1150z" />
<glyph unicode=":" horiz-adv-x="600" d="M100 0l42 300h400l-42 -300h-400zM212 800l43 300h400l-43 -300h-400z" />
<glyph unicode=";" horiz-adv-x="600" d="M58 -300l70 500h400l-63 -450zM212 800l43 300h400l-43 -300h-400z" />
<glyph unicode="&#x3c;" horiz-adv-x="1100" d="M170 500l56 400l971 500l-61 -430l-508 -270l432 -270l-60 -430z" />
<glyph unicode="=" horiz-adv-x="1100" d="M139 275l42 300h900l-42 -300h-900zM216 825l42 300h900l-42 -300h-900z" />
<glyph unicode="&#x3e;" horiz-adv-x="1100" d="M100 0l60 430l508 270l-432 270l61 430l829 -500l-56 -400z" />
<glyph unicode="?" d="M255 1100l142 300h1150l215 -250l-50 -350l-285 -250h-500l-57 -50h-400l14 100l285 250h450l115 100l7 50l-86 100h-1000zM400 0l42 300h400l-42 -300h-400z" />
<glyph unicode="@" horiz-adv-x="2100" d="M121 150l155 1100l285 250h1400l215 -250l-92 -650l-285 -250h-620l75 530h-100l-69 -60l-35 -250l43 -50h60l-24 -170h-230l-129 150l56 400l172 150h550l-74 -520h100l115 100l66 470l-86 100h-900l-114 -100l-113 -800l86 -100h1201l-143 -300h-1350z" />
<glyph unicode="A" d="M100 0l155 1100l652 300h280l568 -300l-155 -1100h-400l63 450h-600l42 300h600l24 170l-277 160h-100l-323 -160l-129 -920h-400z" />
<glyph unicode="B" d="M100 0l197 1400h1220l215 -250l-43 -300l-154 -135l142 -165l-42 -300l-285 -250h-1250zM542 300h600l114 100l7 50l-86 100h-500l42 300h470l115 100l7 50l-86 100h-570z" />
<glyph unicode="C" d="M135 250l127 900l285 250h1150l58 -300h-1000l-114 -100l-85 -600l86 -100h1000l-142 -300h-1150z" />
<glyph unicode="D" d="M100 0l197 1400h1250l215 -250l-127 -900l-285 -250h-1250zM544 310h600l114 100l83 590l-86 100h-600z" />
<glyph unicode="E" d="M135 250l127 900l285 250h1150l58 -300h-1000l-114 -100l-22 -150h1100l-42 -300h-1100l-21 -150l86 -100h1000l-142 -300h-1150z" />
<glyph unicode="F" d="M100 0l162 1150l285 250h1150l58 -300h-1000l-114 -100l-22 -150h1100l-42 -300h-1100l-77 -550h-400z" />
<glyph unicode="G" d="M135 250l127 900l285 250h1150l58 -300h-1000l-114 -100l-85 -600l86 -100h500l114 100l21 150h-400l42 300l801 1l-85 -601l-285 -250h-1000z" />
<glyph unicode="H" d="M100 0l197 1400h400l-78 -550h700l78 550h400l-197 -1400h-400l77 550h-700l-77 -550h-400z" />
<glyph unicode="I" horiz-adv-x="600" d="M100 0l197 1400h400l-197 -1400h-400z" />
<glyph unicode="J" d="M142 300h1000l114 100l141 1000h400l-162 -1150l-285 -250h-1150z" />
<glyph unicode="K" d="M100 0l197 1400h400l-78 -550h400l358 550h420l-358 -550h30l215 -250l-84 -600h-400l63 450l-86 100h-600l-77 -550h-400z" />
<glyph unicode="L" d="M135 250l162 1150h400l-141 -1000l86 -100h1000l-142 -300h-1150z" />
<glyph unicode="M" horiz-adv-x="2000" d="M100 0l162 1150l285 250h1300l215 -250l-162 -1150h-400l141 1000l-86 100h-200l-155 -1100h-400l155 1100h-200l-114 -100l-141 -1000h-400z" />
<glyph unicode="N" d="M100 0l162 1150l285 250h1000l215 -250l-162 -1150h-400l141 1000l-86 100h-500l-114 -100l-141 -1000h-400z" />
<glyph unicode="O" d="M135 250l127 900l285 250h1000l215 -250l-127 -900l-285 -250h-1000zM556 400l86 -100h500l114 100l85 600l-86 100h-500l-114 -100z" />
<glyph unicode="P" d="M100 0l197 1400h1250l215 -250l-64 -450l-285 -250h-750l42 300h500l114 100l22 150l-86 100h-600l-155 -1100h-400z" />
<glyph unicode="Q" d="M135 250l127 900l285 250h1000l215 -250l-127 -900l-285 -250h-122l44 -200h-350l-44 200h-528zM556 400l86 -100h171l-43 200h350l40 -184l96 84l85 600l-86 100h-500l-114 -100z" />
<glyph unicode="R" d="M100 0l197 1400h1250l215 -250l-57 -400l-171 -150l129 -150l-63 -450h-400l49 350l-86 100h-500l42 300h500l114 100l22 150l-86 100h-600l-155 -1100h-400z" />
<glyph unicode="S" d="M142 300h1000l114 100l7 50l-86 100h-750l-215 250l50 350l285 250h1150l58 -300h-1000l-114 -100l-7 -50l85 -100h750l215 -250l-49 -350l-285 -250h-1150z" />
<glyph unicode="T" d="M255 1100l42 300h1500l-42 -300h-550l-155 -1100h-400l155 1100h-550z" />
<glyph unicode="U" d="M135 250l162 1150h400l-141 -1000l86 -100h500l114 100l141 1000h400l-162 -1150l-285 -250h-1000z" />
<glyph unicode="V" d="M142 300l155 1100h400l-130 -920l278 -160h100l322 160l130 920h400l-155 -1100l-652 -300h-280z" />
<glyph unicode="W" horiz-adv-x="2000" d="M135 250l162 1150h400l-141 -1000l86 -100h200l155 1100h400l-155 -1100h200l114 100l141 1000h400l-162 -1150l-285 -250h-1300z" />
<glyph unicode="X" d="M100 0l625 697l-428 703h442l250 -408l366 408h442l-626 -703l429 -697h-449l-245 400l-357 -400h-449z" />
<glyph unicode="Y" d="M205 750l92 650h400l-68 -480l279 -150h100l321 150l68 480h400l-92 -650l-589 -279l-66 -471h-400l66 471z" />
<glyph unicode="Z" d="M100 0l42 300l1063 800h-950l42 300h1500l-42 -300l-1063 -800h950l-42 -300h-1500z" />
<glyph unicode="[" horiz-adv-x="900" d="M100 0l197 1400h600l58 -300h-300l-113 -800h300l-142 -300h-600z" />
<glyph unicode="\" horiz-adv-x="1100" d="M297 1400h420l283 -1400h-420z" />
<glyph unicode="]" horiz-adv-x="900" d="M142 300h300l113 800h-300l142 300h600l-197 -1400h-600z" />
<glyph unicode="^" horiz-adv-x="1500" d="M212 800l455 600h560l285 -600h-430l-163 400l-277 -400h-430z" />
<glyph unicode="_" horiz-adv-x="900" d="M-56 -400l35 250h900l-35 -250h-900z" />
<glyph unicode="`" horiz-adv-x="800" d="M318 1550h410l148 -300h-410z" />
<glyph unicode="a" horiz-adv-x="1500" d="M135 250l28 200l285 250h550l-42 -300h-300l-57 -50l43 -50h300l114 100l42 300l-86 100h-700l143 300h850l214 -250l-84 -600l-285 -250h-800z" />
<glyph unicode="b" horiz-adv-x="1500" d="M135 250l162 1150h400l-141 -1000l86 -100h300l114 100l42 300l-86 100h-300l43 300h550l214 -250l-84 -600l-285 -250h-800z" />
<glyph unicode="c" horiz-adv-x="1500" d="M135 250l84 600l286 250h950l57 -300h-800l-114 -100l-42 -300l86 -100h800l-142 -300h-950z" />
<glyph unicode="d" horiz-adv-x="1500" d="M135 250l84 600l286 250h550l-43 -300h-300l-114 -100l-42 -300l86 -100h300l114 100l141 1000h400l-162 -1150l-285 -250h-800z" />
<glyph unicode="e" horiz-adv-x="1500" d="M135 250l84 600l286 250h800l214 -250l-28 -200l-285 -250h-550l42 300h300l57 50l-43 50h-300l-114 -100l-42 -300l86 -100h700l-142 -300h-850z" />
<glyph unicode="f" horiz-adv-x="1200" d="M198 700l43 300h200l21 150l285 250h450l58 -300h-300l-114 -100h400l-43 -300h-400l-98 -700h-400l98 700h-200z" />
<glyph unicode="g" horiz-adv-x="1500" d="M191 650l28 200l286 250h800l214 -250l-84 -600l-285 -250h-850l-58 300h700l114 100l42 300l-86 100h-300l-57 -50l43 -50h300l-42 -300h-550z" />
<glyph unicode="h" horiz-adv-x="1500" d="M100 0l197 1400h400l-42 -300h650l214 -250l-119 -850h-400l98 700l-86 100h-400l-112 -800h-400z" />
<glyph unicode="i" horiz-adv-x="600" d="M100 0l126 900h400l-126 -900h-400zM255 1100l42 300h400l-42 -300h-400z" />
<glyph unicode="j" horiz-adv-x="1200" d="M142 300h500l114 100l70 500h400l-91 -650l-285 -250h-650zM855 1100l42 300h400l-42 -300h-400z" />
<glyph unicode="k" horiz-adv-x="1500" d="M100 0l197 1400h400l-92 -650h200l330 350h420l-330 -350h30l215 -250l-70 -500h-400l49 350l-86 100h-400l-63 -450h-400z" />
<glyph unicode="l" horiz-adv-x="600" d="M100 0l197 1400h400l-197 -1400h-400z" />
<glyph unicode="m" horiz-adv-x="2000" d="M100 0l119 850l286 250h1300l214 -250l-119 -850h-400l98 700l-86 100h-200l-112 -800h-400l112 800h-200l-114 -100l-98 -700h-400z" />
<glyph unicode="n" horiz-adv-x="1500" d="M100 0l119 850l286 250h800l214 -250l-119 -850h-400l98 700l-86 100h-300l-114 -100l-98 -700h-400z" />
<glyph unicode="o" horiz-adv-x="1500" d="M135 250l84 600l286 250h800l214 -250l-84 -600l-285 -250h-800zM556 400l86 -100h300l114 100l42 300l-86 100h-300l-114 -100z" />
<glyph unicode="p" horiz-adv-x="1500" d="M100 0l119 850l286 250h800l214 -250l-42 -300l-285 -250h-550l42 300h300l114 100l-86 100h-300l-114 -100l-98 -700h-400z" />
<glyph unicode="q" horiz-adv-x="1500" d="M177 550l42 300l286 250h800l214 -250l-119 -850h-400l98 700l-86 100h-300l-114 -100l86 -100h300l-42 -300h-550z" />
<glyph unicode="r" horiz-adv-x="1200" d="M100 0l119 850l286 250h650l57 -300h-500l-114 -100l-98 -700h-400z" />
<glyph unicode="s" horiz-adv-x="1500" d="M142 300h800l57 50l-43 50h-550l-215 250l28 200l286 250h950l57 -300h-800l-57 -50l43 -50h550l215 -250l-28 -200l-285 -250h-950z" />
<glyph unicode="t" horiz-adv-x="1200" d="M212 800l43 300h200l28 200l414 100l-42 -300h400l-43 -300h-400l-56 -400l86 -100h300l-142 -300h-450l-215 250l77 550h-200z" />
<glyph unicode="u" horiz-adv-x="1500" d="M135 250l120 850h400l-99 -700l86 -100h300l114 100l99 700h400l-120 -850l-285 -250h-800z" />
<glyph unicode="v" horiz-adv-x="1500" d="M142 300l113 800h400l-96 -680l186 -100h100l214 100l96 680h400l-113 -800l-552 -300h-280z" />
<glyph unicode="w" horiz-adv-x="2000" d="M135 250l120 850h400l-99 -700l86 -100h200l113 800h400l-113 -800h200l114 100l99 700h400l-120 -850l-285 -250h-1300z" />
<glyph unicode="x" horiz-adv-x="1500" d="M100 0l502 550l-347 550h450l163 -259l237 259h450l-503 -550l348 -550h-450l-164 259l-236 -259h-450z" />
<glyph unicode="y" horiz-adv-x="1500" d="M191 650l64 450h400l-43 -300l86 -100h400l57 400h400l-120 -850l-285 -250h-850l-58 300h700l114 100h-650z" />
<glyph unicode="z" horiz-adv-x="1500" d="M100 0l42 300l790 500h-720l43 300h1300l-43 -300l-790 -500h720l-42 -300h-1300z" />
<glyph unicode="{" horiz-adv-x="1400" d="M177 550l42 300h300l115 100l28 200l285 250h450l58 -300h-300l-114 -100l-22 -150l-171 -150l129 -150l-21 -150l86 -100h300l-142 -300h-450l-215 250l28 200l-86 100h-300z" />
<glyph unicode="|" horiz-adv-x="600" d="M100 0l197 1400h400l-197 -1400h-400z" />
<glyph unicode="}" horiz-adv-x="1400" d="M142 300h300l114 100l21 150l171 150l-129 150l22 150l-86 100h-300l142 300h450l215 -250l-28 -200l85 -100h300l-42 -300h-300l-114 -100l-28 -200l-285 -250h-450z" />
<glyph unicode="~" d="M170 500l21 150l285 250h520l129 -150h130l57 50l14 100h400l-21 -150l-285 -250h-530l-129 150h-120l-57 -50l-14 -100h-400z" />
<glyph unicode="&#xa1;" horiz-adv-x="600" d="M100 0l126 900h400l-126 -900h-400zM255 1100l42 300h400l-42 -300h-400z" />
<glyph unicode="&#xa2;" horiz-adv-x="1500" d="M177 550l85 600l285 250h400l28 200h200l-28 -200h350l58 -300h-450l-71 -500h450l-142 -300h-350l-28 -200h-200l28 200h-400zM598 700l86 -100h150l71 500h-150l-114 -100z" />
<glyph unicode="&#xa3;" d="M100 0l42 300h200l35 250h-200l42 300h200l43 300l285 250h750l58 -300h-600l-114 -100l-22 -150h500l-42 -300h-500l-35 -250h400l114 100l14 100h400l-35 -250l-285 -250h-1250z" />
<glyph unicode="&#xa5;" d="M219 850l78 550h400l-54 -380l279 -150h100l321 150l54 380h400l-78 -550l-528 -250h343l-28 -200h-400l-14 -100h400l-28 -200h-400l-14 -100h-400l14 100h-400l28 200h400l14 100h-400l28 200h343z" />
<glyph unicode="&#xa6;" horiz-adv-x="600" d="M100 0l84 600h400l-84 -600h-400zM212 800l85 600h400l-85 -600h-400z" />
<glyph unicode="&#xa8;" horiz-adv-x="1200" d="M276 1250l42 300h400l-42 -300h-400zM876 1250l42 300h400l-42 -300h-400z" />
<glyph unicode="&#xa9;" horiz-adv-x="2100" d="M121 150l155 1100l285 250h1400l215 -250l-155 -1100l-285 -250h-1400zM542 300l86 -100h900l114 100l113 800l-86 100h-900l-114 -100zM770 500l56 400l172 150h450l69 -220h-370l-69 -60l-21 -150l43 -50h380l-131 -220h-450z" />
<glyph unicode="&#xab;" horiz-adv-x="1300" d="M184 600l28 200l571 500l-64 -450l-171 -150l129 -150l-63 -450zM784 600l28 200l571 500l-64 -450l-171 -150l129 -150l-63 -450z" />
<glyph unicode="&#xac;" horiz-adv-x="1100" d="M177 550l42 300h900l-84 -600h-400l42 300h-500z" />
<glyph unicode="&#xad;" horiz-adv-x="1100" d="M177 550l42 300h900l-42 -300h-900z" />
<glyph unicode="&#xae;" horiz-adv-x="2100" d="M121 150l155 1100l285 250h1400l215 -250l-155 -1100l-285 -250h-1400zM542 300l86 -100h900l114 100l113 800l-86 100h-900l-114 -100zM749 350l99 700h550l128 -150l-26 -190l-91 -80l68 -80l-29 -210h-270l14 100l-52 60h-100l-21 -150h-270zM1071 720h110l57 50 l-51 60h-100z" />
<glyph unicode="&#xb0;" horiz-adv-x="1000" d="M219 850l43 300l285 250h300l215 -250l-43 -300l-285 -250h-300zM484 950l85 -100h100l115 100l14 100l-86 100h-100l-114 -100z" />
<glyph unicode="&#xb1;" horiz-adv-x="1300" d="M100 0l35 250h1100l-35 -250h-1100zM191 650l43 300h350l42 300h400l-42 -300h350l-43 -300h-350l-42 -300h-400l42 300h-350z" />
<glyph unicode="&#xb4;" horiz-adv-x="800" d="M276 1250l232 300h410l-232 -300h-410z" />
<glyph unicode="&#xb5;" horiz-adv-x="1500" d="M100 0l155 1100h400l-78 -550h400l114 100l64 450h400l-85 -600l-285 -250h-650l-35 -250h-400z" />
<glyph unicode="&#xb6;" d="M205 750l57 400l285 250h1250l-197 -1400h-400l155 1100h-150l-155 -1100h-400l70 500h-300z" />
<glyph unicode="&#xb7;" horiz-adv-x="600" d="M177 550l42 300h400l-42 -300h-400z" />
<glyph unicode="&#xb8;" horiz-adv-x="800" d="M37 -450l232 300h410l-232 -300h-410z" />
<glyph unicode="&#xbb;" horiz-adv-x="1300" d="M114 100l63 450l171 150l-129 150l64 450l429 -500l-28 -200zM714 100l63 450l171 150l-129 150l64 450l429 -500l-28 -200z" />
<glyph unicode="&#xbf;" d="M135 250l50 350l285 250h500l57 50h400l-15 -100l-285 -250h-450l-114 -100l-7 -50l86 -100h1000l-142 -300h-1150zM1055 1100l42 300h400l-42 -300h-400z" />
<glyph unicode="&#xc0;" d="M100 0l155 1100l652 300h280l568 -300l-155 -1100h-400l63 450h-600l42 300h600l24 170l-277 160h-100l-323 -160l-129 -920h-400zM710 1850h410l148 -300h-410z" />
<glyph unicode="&#xc1;" d="M100 0l155 1100l652 300h280l568 -300l-155 -1100h-400l63 450h-600l42 300h600l24 170l-277 160h-100l-323 -160l-129 -920h-400zM868 1550l232 300h410l-232 -300h-410z" />
<glyph unicode="&#xc2;" d="M100 0l155 1100l652 300h280l568 -300l-155 -1100h-400l63 450h-600l42 300h600l24 170l-277 160h-100l-323 -160l-129 -920h-400zM518 1550l306 400h610l184 -400h-430l-92 200l-148 -200h-430z" />
<glyph unicode="&#xc3;" d="M100 0l155 1100l652 300h280l568 -300l-155 -1100h-400l63 450h-600l42 300h600l24 170l-277 160h-100l-323 -160l-129 -920h-400zM533 1550l21 150l228 200h320l112 -130h120l34 30l14 100h270l-21 -150l-228 -200h-318l-3 -4l-111 134h-120l-34 -30l-14 -100h-270z" />
<glyph unicode="&#xc4;" d="M100 0l155 1100l652 300h280l568 -300l-155 -1100h-400l63 450h-600l42 300h600l24 170l-277 160h-100l-323 -160l-129 -920h-400zM568 1550l42 300h400l-42 -300h-400zM1168 1550l42 300h400l-42 -300h-400z" />
<glyph unicode="&#xc5;" d="M100 0l155 1100l652 300h280l568 -300l-155 -1100h-400l63 450h-600l42 300h600l24 170l-277 160h-100l-323 -160l-129 -920h-400zM764 1700l28 200l171 150h350l129 -150l-28 -200l-171 -150h-350zM1024 1775l43 -50h50l57 50l7 50l-42 50h-50l-58 -50z" />
<glyph unicode="&#xc6;" horiz-adv-x="2800" d="M100 0l155 1100l652 300h280l286 -152l174 152h1150l58 -300h-1000l-114 -100l-22 -150h1100l-42 -300h-1100l-21 -150l86 -100h1000l-142 -300h-1150l-215 250l28 200h-600l42 300h600l24 170l-277 160h-100l-323 -160l-129 -920h-400z" />
<glyph unicode="&#xc7;" d="M135 250l127 900l285 250h1150l58 -300h-1000l-114 -100l-85 -600l86 -100h1000l-142 -300h-1150zM487 -450l232 300h410l-232 -300h-410z" />
<glyph unicode="&#xc8;" d="M135 250l127 900l285 250h1150l58 -300h-1000l-114 -100l-22 -150h1100l-42 -300h-1100l-21 -150l86 -100h1000l-142 -300h-1150zM710 1850h410l148 -300h-410z" />
<glyph unicode="&#xc9;" d="M135 250l127 900l285 250h1150l58 -300h-1000l-114 -100l-22 -150h1100l-42 -300h-1100l-21 -150l86 -100h1000l-142 -300h-1150zM868 1550l232 300h410l-232 -300h-410z" />
<glyph unicode="&#xca;" d="M135 250l127 900l285 250h1150l58 -300h-1000l-114 -100l-22 -150h1100l-42 -300h-1100l-21 -150l86 -100h1000l-142 -300h-1150zM518 1550l306 400h610l184 -400h-430l-92 200l-148 -200h-430z" />
<glyph unicode="&#xcb;" d="M135 250l127 900l285 250h1150l58 -300h-1000l-114 -100l-22 -150h1100l-42 -300h-1100l-21 -150l86 -100h1000l-142 -300h-1150zM568 1550l42 300h400l-42 -300h-400zM1168 1550l42 300h400l-42 -300h-400z" />
<glyph unicode="&#xcc;" horiz-adv-x="800" d="M300 0l197 1400h400l-197 -1400h-400zM360 1850h410l148 -300h-410z" />
<glyph unicode="&#xcd;" horiz-adv-x="800" d="M100 0l197 1400h400l-197 -1400h-400zM318 1550l232 300h410l-232 -300h-410z" />
<glyph unicode="&#xce;" horiz-adv-x="1300" d="M318 1550l306 400h610l184 -400h-430l-92 200l-148 -200h-430zM450 0l197 1400h400l-197 -1400h-400z" />
<glyph unicode="&#xcf;" horiz-adv-x="1200" d="M318 1550l42 300h400l-42 -300h-400zM400 0l197 1400h400l-197 -1400h-400zM918 1550l42 300h400l-42 -300h-400z" />
<glyph unicode="&#xd0;" horiz-adv-x="1900" d="M177 550l42 300h200l78 550h1250l215 -250l-127 -900l-285 -250h-1250l77 550h-200zM742 300h600l114 100l85 600l-86 100h-600l-36 -250h400l-42 -300h-400z" />
<glyph unicode="&#xd1;" d="M100 0l162 1150l285 250h1000l215 -250l-162 -1150h-400l141 1000l-86 100h-500l-114 -100l-141 -1000h-400zM533 1550l21 150l228 200h320l112 -130h120l34 30l14 100h270l-21 -150l-228 -200h-318l-3 -4l-111 134h-120l-34 -30l-14 -100h-270z" />
<glyph unicode="&#xd2;" d="M135 250l127 900l285 250h1000l215 -250l-127 -900l-285 -250h-1000zM556 400l86 -100h500l114 100l85 600l-86 100h-500l-114 -100zM710 1850h410l148 -300h-410z" />
<glyph unicode="&#xd3;" d="M135 250l127 900l285 250h1000l215 -250l-127 -900l-285 -250h-1000zM556 400l86 -100h500l114 100l85 600l-86 100h-500l-114 -100zM868 1550l232 300h410l-232 -300h-410z" />
<glyph unicode="&#xd4;" d="M135 250l127 900l285 250h1000l215 -250l-127 -900l-285 -250h-1000zM518 1550l306 400h610l184 -400h-430l-92 200l-148 -200h-430zM556 400l86 -100h500l114 100l85 600l-86 100h-500l-114 -100z" />
<glyph unicode="&#xd5;" d="M135 250l127 900l285 250h1000l215 -250l-127 -900l-285 -250h-1000zM533 1550l21 150l228 200h320l112 -130h120l34 30l14 100h270l-21 -150l-228 -200h-318l-3 -4l-111 134h-120l-34 -30l-14 -100h-270zM556 400l86 -100h500l114 100l85 600l-86 100h-500l-114 -100z " />
<glyph unicode="&#xd6;" d="M135 250l127 900l285 250h1000l215 -250l-127 -900l-285 -250h-1000zM556 400l86 -100h500l114 100l85 600l-86 100h-500l-114 -100zM568 1550l42 300h400l-42 -300h-400zM1168 1550l42 300h400l-42 -300h-400z" />
<glyph unicode="&#xd7;" horiz-adv-x="1221" d="M159 423l305 268l-229 267l277 243l229 -267l306 267l209 -243l-306 -267l230 -268l-277 -243l-230 268l-305 -268z" />
<glyph unicode="&#xd8;" d="M135 250l127 900l285 250h1000l215 -250l-127 -900l-285 -250h-1000zM570 500l535 600h-350l-114 -100zM792 300h350l114 100l70 500z" />
<glyph unicode="&#xd9;" d="M135 250l162 1150h400l-141 -1000l86 -100h500l114 100l141 1000h400l-162 -1150l-285 -250h-1000zM710 1850h410l148 -300h-410z" />
<glyph unicode="&#xda;" d="M135 250l162 1150h400l-141 -1000l86 -100h500l114 100l141 1000h400l-162 -1150l-285 -250h-1000zM868 1550l232 300h410l-232 -300h-410z" />
<glyph unicode="&#xdb;" d="M135 250l162 1150h400l-141 -1000l86 -100h500l114 100l141 1000h400l-162 -1150l-285 -250h-1000zM518 1550l306 400h610l184 -400h-430l-92 200l-148 -200h-430z" />
<glyph unicode="&#xdc;" d="M135 250l162 1150h400l-141 -1000l86 -100h500l114 100l141 1000h400l-162 -1150l-285 -250h-1000zM568 1550l42 300h400l-42 -300h-400zM1168 1550l42 300h400l-42 -300h-400z" />
<glyph unicode="&#xdd;" d="M205 750l92 650h400l-68 -480l279 -150h100l321 150l68 480h400l-92 -650l-589 -279l-66 -471h-400l66 471zM868 1550l232 300h410l-232 -300h-410z" />
<glyph unicode="&#xde;" d="M100 0l197 1400h400l-35 -250h850l214 -250l-56 -400l-285 -250h-750l42 300h500l114 100l14 100l-86 100h-600l-119 -850h-400z" />
<glyph unicode="&#xdf;" d="M100 0l162 1150l285 250h970l215 -250l-43 -300l-154 -135l142 -165l-42 -300l-285 -250h-750l42 300h500l114 100l7 50l-86 100h-500l42 300h470l115 100l7 50l-86 100h-470l-114 -100l-141 -1000h-400z" />
<glyph unicode="&#xe0;" horiz-adv-x="1500" d="M135 250l28 200l285 250h550l-42 -300h-300l-57 -50l43 -50h300l114 100l42 300l-86 100h-700l143 300h850l214 -250l-84 -600l-285 -250h-800zM568 1550h410l148 -300h-410z" />
<glyph unicode="&#xe1;" horiz-adv-x="1500" d="M135 250l28 200l285 250h550l-42 -300h-300l-57 -50l43 -50h300l114 100l42 300l-86 100h-700l143 300h850l214 -250l-84 -600l-285 -250h-800zM726 1250l232 300h410l-232 -300h-410z" />
<glyph unicode="&#xe2;" horiz-adv-x="1500" d="M135 250l28 200l285 250h550l-42 -300h-300l-57 -50l43 -50h300l114 100l42 300l-86 100h-700l143 300h850l214 -250l-84 -600l-285 -250h-800zM376 1250l306 400h610l184 -400h-430l-92 200l-148 -200h-430z" />
<glyph unicode="&#xe3;" horiz-adv-x="1500" d="M135 250l28 200l285 250h550l-42 -300h-300l-57 -50l43 -50h300l114 100l42 300l-86 100h-700l143 300h850l214 -250l-84 -600l-285 -250h-800zM391 1250l21 150l228 200h320l112 -130h120l34 30l14 100h270l-21 -150l-228 -200h-318l-3 -4l-111 134h-120l-34 -30 l-14 -100h-270z" />
<glyph unicode="&#xe4;" horiz-adv-x="1500" d="M135 250l28 200l285 250h550l-42 -300h-300l-57 -50l43 -50h300l114 100l42 300l-86 100h-700l143 300h850l214 -250l-84 -600l-285 -250h-800zM426 1250l42 300h400l-42 -300h-400zM1026 1250l42 300h400l-42 -300h-400z" />
<glyph unicode="&#xe5;" horiz-adv-x="1500" d="M135 250l28 200l285 250h550l-42 -300h-300l-57 -50l43 -50h300l114 100l42 300l-86 100h-700l143 300h850l214 -250l-84 -600l-285 -250h-800zM622 1400l28 200l171 150h350l129 -150l-28 -200l-171 -150h-350zM882 1475l43 -50h50l57 50l7 50l-43 50h-50l-57 -50z" />
<glyph unicode="&#xe6;" horiz-adv-x="2400" d="M135 250l28 200l285 250h550l-42 -300h-300l-57 -50l43 -50h300l114 100l42 300l-86 100h-700l143 300h800l86 -100l114 100h750l214 -250l-28 -200l-285 -250h-550l42 300h300l57 50l-43 50h-300l-114 -100l-42 -300l86 -100h700l-142 -300h-800l-86 100l-114 -100h-750 z" />
<glyph unicode="&#xe7;" horiz-adv-x="1500" d="M135 250l84 600l286 250h950l57 -300h-800l-114 -100l-42 -300l86 -100h800l-142 -300h-950zM387 -450l232 300h410l-232 -300h-410z" />
<glyph unicode="&#xe8;" horiz-adv-x="1500" d="M135 250l84 600l286 250h800l214 -250l-28 -200l-285 -250h-550l42 300h300l57 50l-43 50h-300l-114 -100l-42 -300l86 -100h700l-142 -300h-850zM568 1550h410l148 -300h-410z" />
<glyph unicode="&#xe9;" horiz-adv-x="1500" d="M135 250l84 600l286 250h800l214 -250l-28 -200l-285 -250h-550l42 300h300l57 50l-43 50h-300l-114 -100l-42 -300l86 -100h700l-142 -300h-850zM726 1250l232 300h410l-232 -300h-410z" />
<glyph unicode="&#xea;" horiz-adv-x="1500" d="M135 250l84 600l286 250h800l214 -250l-28 -200l-285 -250h-550l42 300h300l57 50l-43 50h-300l-114 -100l-42 -300l86 -100h700l-142 -300h-850zM376 1250l306 400h610l184 -400h-430l-92 200l-148 -200h-430z" />
<glyph unicode="&#xeb;" horiz-adv-x="1500" d="M135 250l84 600l286 250h800l214 -250l-28 -200l-285 -250h-550l42 300h300l57 50l-43 50h-300l-114 -100l-42 -300l86 -100h700l-142 -300h-850zM426 1250l42 300h400l-42 -300h-400zM1026 1250l42 300h400l-42 -300h-400z" />
<glyph unicode="&#xec;" horiz-adv-x="800" d="M300 0l155 1100h400l-155 -1100h-400zM318 1550h410l148 -300h-410z" />
<glyph unicode="&#xed;" horiz-adv-x="800" d="M100 0l155 1100h400l-155 -1100h-400zM276 1250l232 300h410l-232 -300h-410z" />
<glyph unicode="&#xee;" horiz-adv-x="1300" d="M276 1250l306 400h610l184 -400h-430l-92 200l-148 -200h-430zM450 0l155 1100h400l-155 -1100h-400z" />
<glyph unicode="&#xef;" horiz-adv-x="1200" d="M276 1250l42 300h400l-42 -300h-400zM400 0l155 1100h400l-155 -1100h-400zM876 1250l42 300h400l-42 -300h-400z" />
<glyph unicode="&#xf0;" d="M135 250l56 400l285 250h550l-42 -300h-300l-114 -100l-14 -100l86 -100h300l114 100l85 600h-400l35 250h400l21 150h400l-21 -150h200l-35 -250h-200l-106 -750l-285 -250h-800z" />
<glyph unicode="&#xf1;" horiz-adv-x="1500" d="M100 0l119 850l286 250h800l214 -250l-119 -850h-400l98 700l-86 100h-300l-114 -100l-98 -700h-400zM391 1250l21 150l228 200h320l112 -130h120l34 30l14 100h270l-21 -150l-228 -200h-318l-3 -4l-111 134h-120l-34 -30l-14 -100h-270z" />
<glyph unicode="&#xf2;" horiz-adv-x="1500" d="M135 250l84 600l286 250h800l214 -250l-84 -600l-285 -250h-800zM556 400l86 -100h300l114 100l42 300l-86 100h-300l-114 -100zM568 1550h410l148 -300h-410z" />
<glyph unicode="&#xf3;" horiz-adv-x="1500" d="M135 250l84 600l286 250h800l214 -250l-84 -600l-285 -250h-800zM556 400l86 -100h300l114 100l42 300l-86 100h-300l-114 -100zM726 1250l232 300h410l-232 -300h-410z" />
<glyph unicode="&#xf4;" horiz-adv-x="1500" d="M135 250l84 600l286 250h800l214 -250l-84 -600l-285 -250h-800zM376 1250l306 400h610l184 -400h-430l-92 200l-148 -200h-430zM556 400l86 -100h300l114 100l42 300l-86 100h-300l-114 -100z" />
<glyph unicode="&#xf5;" horiz-adv-x="1500" d="M135 250l84 600l286 250h800l214 -250l-84 -600l-285 -250h-800zM391 1250l21 150l228 200h320l112 -130h120l34 30l14 100h270l-21 -150l-228 -200h-318l-3 -4l-111 134h-120l-34 -30l-14 -100h-270zM556 400l86 -100h300l114 100l42 300l-86 100h-300l-114 -100z" />
<glyph unicode="&#xf6;" horiz-adv-x="1500" d="M135 250l84 600l286 250h800l214 -250l-84 -600l-285 -250h-800zM426 1250l42 300h400l-42 -300h-400zM556 400l86 -100h300l114 100l42 300l-86 100h-300l-114 -100zM1026 1250l42 300h400l-42 -300h-400z" />
<glyph unicode="&#xf7;" horiz-adv-x="1300" d="M177 550l42 300h1100l-42 -300h-1100zM457 50l42 300h400l-42 -300h-400zM598 1050l42 300h400l-42 -300h-400z" />
<glyph unicode="&#xf8;" horiz-adv-x="1500" d="M135 250l84 600l286 250h800l214 -250l-84 -600l-285 -250h-800zM570 500l3 -4l349 304h-210l-114 -100zM712 300h230l114 100l33 222z" />
<glyph unicode="&#xf9;" horiz-adv-x="1500" d="M135 250l120 850h400l-99 -700l86 -100h300l114 100l99 700h400l-120 -850l-285 -250h-800zM568 1550h410l148 -300h-410z" />
<glyph unicode="&#xfa;" horiz-adv-x="1500" d="M135 250l120 850h400l-99 -700l86 -100h300l114 100l99 700h400l-120 -850l-285 -250h-800zM726 1250l232 300h410l-232 -300h-410z" />
<glyph unicode="&#xfb;" horiz-adv-x="1500" d="M135 250l120 850h400l-99 -700l86 -100h300l114 100l99 700h400l-120 -850l-285 -250h-800zM376 1250l306 400h610l184 -400h-430l-92 200l-148 -200h-430z" />
<glyph unicode="&#xfc;" horiz-adv-x="1500" d="M135 250l120 850h400l-99 -700l86 -100h300l114 100l99 700h400l-120 -850l-285 -250h-800zM426 1250l42 300h400l-42 -300h-400zM1026 1250l42 300h400l-42 -300h-400z" />
<glyph unicode="&#xfd;" horiz-adv-x="1500" d="M191 650l64 450h400l-43 -300l86 -100h400l57 400h400l-120 -850l-285 -250h-850l-58 300h700l114 100h-650zM726 1250l232 300h410l-232 -300h-410z" />
<glyph unicode="&#xfe;" horiz-adv-x="1500" d="M100 0l197 1400h400l-42 -300h650l214 -250l-56 -400l-285 -250h-550l42 300h300l114 100l14 100l-86 100h-400l-112 -800h-400z" />
<glyph unicode="&#xff;" horiz-adv-x="1500" d="M191 650l64 450h400l-43 -300l86 -100h400l57 400h400l-120 -850l-285 -250h-850l-58 300h700l114 100h-650zM426 1250l42 300h400l-42 -300h-400zM1026 1250l42 300h400l-42 -300h-400z" />
<glyph unicode="&#x152;" horiz-adv-x="2800" d="M135 250l127 900l285 250h900l129 -150l171 150h1050l58 -300h-1000l-114 -100l-22 -150h1100l-42 -300h-1100l-21 -150l86 -100h1000l-142 -300h-1050l-129 150l-171 -150h-900zM556 400l86 -100h500l114 100l85 600l-86 100h-500l-114 -100z" />
<glyph unicode="&#x153;" horiz-adv-x="2400" d="M135 250l84 600l286 250h700l129 -150l171 150h700l214 -250l-28 -200l-285 -250h-550l42 300h300l57 50l-43 50h-300l-114 -100l-42 -300l86 -100h700l-142 -300h-750l-129 150l-171 -150h-700zM556 400l86 -100h300l114 100l42 300l-86 100h-300l-114 -100z" />
<glyph unicode="&#x178;" d="M205 750l92 650h400l-68 -480l279 -150h100l321 150l68 480h400l-92 -650l-589 -279l-66 -471h-400l66 471zM568 1550l42 300h400l-42 -300h-400zM1168 1550l42 300h400l-42 -300h-400z" />
<glyph unicode="&#x2c6;" horiz-adv-x="1300" d="M276 1250l306 400h610l184 -400h-430l-92 200l-148 -200h-430z" />
<glyph unicode="&#x2dc;" horiz-adv-x="1270" d="M276 1250l21 150l228 200h320l112 -130h120l34 30l14 100h270l-21 -150l-228 -200h-318l-3 -4l-111 134h-120l-34 -30l-14 -100h-270z" />
<glyph unicode="&#x2000;" horiz-adv-x="1025" />
<glyph unicode="&#x2001;" horiz-adv-x="2050" />
<glyph unicode="&#x2002;" horiz-adv-x="1025" />
<glyph unicode="&#x2003;" horiz-adv-x="2050" />
<glyph unicode="&#x2004;" horiz-adv-x="683" />
<glyph unicode="&#x2005;" horiz-adv-x="512" />
<glyph unicode="&#x2006;" horiz-adv-x="341" />
<glyph unicode="&#x2007;" horiz-adv-x="341" />
<glyph unicode="&#x2008;" horiz-adv-x="256" />
<glyph unicode="&#x2009;" horiz-adv-x="410" />
<glyph unicode="&#x200a;" horiz-adv-x="113" />
<glyph unicode="&#x2010;" horiz-adv-x="1100" d="M177 550l42 300h900l-42 -300h-900z" />
<glyph unicode="&#x2011;" horiz-adv-x="1100" d="M177 550l42 300h900l-42 -300h-900z" />
<glyph unicode="&#x2012;" horiz-adv-x="1100" d="M177 550l42 300h900l-42 -300h-900z" />
<glyph unicode="&#x2013;" horiz-adv-x="1100" d="M177 550l42 300h900l-42 -300h-900z" />
<glyph unicode="&#x2014;" horiz-adv-x="1500" d="M177 550l42 300h1300l-42 -300h-1300z" />
<glyph unicode="&#x2018;" horiz-adv-x="600" d="M234 950l63 450h400l-71 -500z" />
<glyph unicode="&#x2019;" horiz-adv-x="600" d="M226 900l71 500h400l-63 -450z" />
<glyph unicode="&#x201a;" horiz-adv-x="600" d="M58 -300l70 500h400l-63 -450z" />
<glyph unicode="&#x201c;" horiz-adv-x="1200" d="M234 950l63 450h400l-71 -500zM834 950l63 450h400l-71 -500z" />
<glyph unicode="&#x201d;" horiz-adv-x="1200" d="M226 900l71 500h400l-63 -450zM826 900l71 500h400l-63 -450z" />
<glyph unicode="&#x201e;" horiz-adv-x="1200" d="M58 -300l70 500h400l-63 -450zM658 -300l70 500h400l-63 -450z" />
<glyph unicode="&#x2022;" horiz-adv-x="600" d="M170 500l56 400h400l-56 -400h-400z" />
<glyph unicode="&#x2026;" horiz-adv-x="1800" d="M100 0l42 300h400l-42 -300h-400zM700 0l42 300h400l-42 -300h-400zM1300 0l42 300h400l-42 -300h-400z" />
<glyph unicode="&#x202f;" horiz-adv-x="410" />
<glyph unicode="&#x2039;" horiz-adv-x="700" d="M184 600l28 200l571 500l-64 -450l-171 -150l129 -150l-63 -450z" />
<glyph unicode="&#x203a;" horiz-adv-x="700" d="M114 100l63 450l171 150l-129 150l64 450l429 -500l-28 -200z" />
<glyph unicode="&#x205f;" horiz-adv-x="512" />
<glyph unicode="&#x20ac;" d="M156 400l35 250h200l14 100h-200l36 250h200l21 150l285 250h950l58 -300h-800l-114 -100h598l-102 -250h-532l-14 -100h507l-100 -250h-442l86 -100h800l-142 -300h-950l-215 250l21 150h-200z" />
<glyph unicode="&#x2122;" horiz-adv-x="2300" d="M264 1170l33 230h800l-33 -230h-265l-66 -470h-270l66 470h-265zM1098 700l78 550l171 150h900l129 -150l-78 -550h-260l59 420l-51 60h-145l-68 -480h-270l68 480h-145l-57 -50l-61 -430h-270z" />
<glyph unicode="&#x25fc;" horiz-adv-x="1100" d="M0 0v1100h1100v-1100h-1100z" />
</font>
</defs>
</svg>
