<?xml version="1.0" standalone="no"?>
<!DOCTYPE svg PUBLIC "-//W3C//DTD SVG 1.1//EN" "http://www.w3.org/Graphics/SVG/1.1/DTD/svg11.dtd" >
<svg xmlns="http://www.w3.org/2000/svg">
<metadata></metadata>
<defs>
<font id="polentical_neonbold" horiz-adv-x="1700" >
<font-face units-per-em="2048" ascent="1638" descent="-410" />
<missing-glyph horiz-adv-x="800" />
<glyph horiz-adv-x="2048" />
<glyph horiz-adv-x="2048" />
<glyph unicode="&#xd;" horiz-adv-x="2048" />
<glyph unicode=" "  horiz-adv-x="800" />
<glyph unicode="&#x09;" horiz-adv-x="800" />
<glyph unicode="&#xa0;" horiz-adv-x="800" />
<glyph unicode="!" horiz-adv-x="600" d="M100 0v300h400v-300h-400zM100 500v900h400v-900h-400z" />
<glyph unicode="&#x22;" horiz-adv-x="1200" d="M100 900v500h400v-450zM700 900v500h400v-450z" />
<glyph unicode="#" horiz-adv-x="1900" d="M100 300v300h262l65 200h-327v300h414l86 300h400l-86 -300h300l86 300h400l-86 -300h186v-300h-273l-65 -200h338v-300h-415l-85 -300h-400l85 300h-300l-85 -300h-400l85 300h-185zM762 600h300l65 200h-300z" />
<glyph unicode="$" d="M100 300h650v250h-400l-250 250v350l250 250h400v200h200v-200h550l100 -300h-650v-250h400l250 -250v-350l-250 -250h-400v-200h-200v200h-550zM500 950l100 -100h150v250h-150l-100 -100v-50zM950 300h150l100 100v50l-100 100h-150v-250z" />
<glyph unicode="%" horiz-adv-x="2100" d="M100 850v300l250 250h300l250 -250v-300l-250 -250h-300zM300 0l1100 1400h400l-1100 -1400h-400zM350 950l100 -100h100l100 100v100l-100 100h-100l-100 -100v-100zM1200 250v300l250 250h300l250 -250v-300l-250 -250h-300zM1450 350l100 -100h100l100 100v100 l-100 100h-100l-100 -100v-100z" />
<glyph unicode="&#x26;" d="M100 250v300l150 150l-150 150v300l250 250h950l100 -300h-800l-100 -100v-50l100 -100h400v-300h-400l-100 -100v-50l100 -100h500l100 100v400h400v-550l-250 -250h-1000z" />
<glyph unicode="'" horiz-adv-x="600" d="M100 900v500h400v-450z" />
<glyph unicode="(" horiz-adv-x="900" d="M100 250v900l250 250h350l100 -300h-200l-100 -100v-600l100 -100h200l-100 -300h-350z" />
<glyph unicode=")" horiz-adv-x="900" d="M100 300h200l100 100v600l-100 100h-200l100 300h350l250 -250v-900l-250 -250h-350z" />
<glyph unicode="*" horiz-adv-x="1063" d="M100 915l198 135l-198 135l134 174l172 -117v158h250v-159l173 118l134 -174l-199 -135l199 -135l-134 -174l-173 118v-159h-250v158l-172 -117z" />
<glyph unicode="+" horiz-adv-x="1300" d="M100 550v300h350v300h400v-300h350v-300h-350v-300h-400v300h-350z" />
<glyph unicode="," horiz-adv-x="600" d="M100 200h400v-450l-400 -50v500z" />
<glyph unicode="-" horiz-adv-x="1100" d="M100 550v300h900v-300h-900z" />
<glyph unicode="." horiz-adv-x="600" d="M100 0v300h400v-300h-400z" />
<glyph unicode="/" horiz-adv-x="1100" d="M100 0l480 1400h420l-480 -1400h-420z" />
<glyph unicode="0" d="M100 250v900l250 250h1000l250 -250v-900l-250 -250h-1000zM500 500l450 600h-350l-100 -100v-500zM750 300h350l100 100v500z" />
<glyph unicode="1" horiz-adv-x="800" d="M100 1100l100 300h500v-1400h-400v1100h-200z" />
<glyph unicode="2" d="M100 0v600l250 250h750l100 100v50l-100 100h-1000l100 300h1150l250 -250v-350l-250 -250h-750l-100 -100v-150h1100v-300h-1500z" />
<glyph unicode="3" d="M100 300h1000l100 100v50l-100 100h-1000v300h1000l100 100v50l-100 100h-1000l100 300h1150l250 -250v-300l-150 -150l150 -150v-300l-250 -250h-1150z" />
<glyph unicode="4" d="M100 800v600h400v-450l100 -100h600v550h400v-1400h-400v550h-850z" />
<glyph unicode="5" d="M100 300h1000l100 100v100l-100 100h-1000v800h1500v-300h-1100v-200h850l250 -250v-400l-250 -250h-1150z" />
<glyph unicode="6" d="M100 250v900l250 250h1150l100 -300h-1000l-100 -100v-600l100 -100h500l100 100v100l-100 100h-500v300h750l250 -250v-400l-250 -250h-1000z" />
<glyph unicode="7" d="M100 0l1000 1100h-1000l100 300h1400v-300l-1000 -1100h-500z" />
<glyph unicode="8" d="M100 250v300l150 150l-150 150v300l250 250h1000l250 -250v-300l-150 -150l150 -150v-300l-250 -250h-1000zM500 400l100 -100h500l100 100v50l-100 100h-500l-100 -100v-50zM500 950l100 -100h500l100 100v50l-100 100h-500l-100 -100v-50z" />
<glyph unicode="9" d="M100 300h1000l100 100v600l-100 100h-500l-100 -100v-100l100 -100h500v-300h-750l-250 250v400l250 250h1000l250 -250v-900l-250 -250h-1150z" />
<glyph unicode=":" horiz-adv-x="600" d="M100 0v300h400v-300h-400zM100 800v300h400v-300h-400z" />
<glyph unicode=";" horiz-adv-x="600" d="M100 200h400v-450l-400 -50v500zM100 800v300h400v-300h-400z" />
<glyph unicode="&#x3c;" horiz-adv-x="1100" d="M100 500v400l900 500v-430l-470 -270l470 -270v-430z" />
<glyph unicode="=" horiz-adv-x="1100" d="M100 275v300h900v-300h-900zM100 825v300h900v-300h-900z" />
<glyph unicode="&#x3e;" horiz-adv-x="1100" d="M100 0v430l470 270l-470 270v430l900 -500v-400z" />
<glyph unicode="?" d="M100 1100l100 300h1150l250 -250v-350l-250 -250h-500l-50 -50h-400v100l250 250h450l100 100v50l-100 100h-1000zM400 0v300h400v-300h-400z" />
<glyph unicode="@" horiz-adv-x="2100" d="M100 150v1100l250 250h1400l250 -250v-650l-250 -250h-620v530h-100l-60 -60v-250l50 -50h60v-170h-230l-150 150v400l150 150h550v-520h100l100 100v470l-100 100h-900l-100 -100v-800l100 -100h1201l-101 -300h-1350z" />
<glyph unicode="A" d="M100 0v1100l610 300h280l610 -300v-1100h-400v450h-600v300h600v170l-300 160h-100l-300 -160v-920h-400z" />
<glyph unicode="B" d="M100 0v1400h1220l250 -250v-300l-135 -135l165 -165v-300l-250 -250h-1250zM500 300h600l100 100v50l-100 100h-500v300h470l100 100v50l-100 100h-570v-800z" />
<glyph unicode="C" d="M100 250v900l250 250h1150l100 -300h-1000l-100 -100v-600l100 -100h1000l-100 -300h-1150z" />
<glyph unicode="D" d="M100 0v1400h1250l250 -250v-900l-250 -250h-1250zM500 310h600l100 100v590l-100 100h-600v-790z" />
<glyph unicode="E" d="M100 250v900l250 250h1150l100 -300h-1000l-100 -100v-150h1100v-300h-1100v-150l100 -100h1000l-100 -300h-1150z" />
<glyph unicode="F" d="M100 0v1150l250 250h1150l100 -300h-1000l-100 -100v-150h1100v-300h-1100v-550h-400z" />
<glyph unicode="G" d="M100 250v900l250 250h1150l100 -300h-1000l-100 -100v-600l100 -100h500l100 100v150h-400v300l800 1v-601l-250 -250h-1000z" />
<glyph unicode="H" d="M100 0v1400h400v-550h700v550h400v-1400h-400v550h-700v-550h-400z" />
<glyph unicode="I" horiz-adv-x="600" d="M100 0v1400h400v-1400h-400z" />
<glyph unicode="J" d="M100 300h1000l100 100v1000h400v-1150l-250 -250h-1150z" />
<glyph unicode="K" d="M100 0v1400h400v-550h400l280 550h420l-280 -550h30l250 -250v-600h-400v450l-100 100h-600v-550h-400z" />
<glyph unicode="L" d="M100 250v1150h400v-1000l100 -100h1000l-100 -300h-1150z" />
<glyph unicode="M" horiz-adv-x="2000" d="M100 0v1150l250 250h1300l250 -250v-1150h-400v1000l-100 100h-200v-1100h-400v1100h-200l-100 -100v-1000h-400z" />
<glyph unicode="N" d="M100 0v1150l250 250h1000l250 -250v-1150h-400v1000l-100 100h-500l-100 -100v-1000h-400z" />
<glyph unicode="O" d="M100 250v900l250 250h1000l250 -250v-900l-250 -250h-1000zM500 400l100 -100h500l100 100v600l-100 100h-500l-100 -100v-600z" />
<glyph unicode="P" d="M100 0v1400h1250l250 -250v-450l-250 -250h-750v300h500l100 100v150l-100 100h-600v-1100h-400z" />
<glyph unicode="Q" d="M100 250v900l250 250h1000l250 -250v-900l-250 -250h-122l72 -200h-350l-72 200h-528zM500 400l100 -100h171l-71 200h350l66 -184l84 84v600l-100 100h-500l-100 -100v-600z" />
<glyph unicode="R" d="M100 0v1400h1250l250 -250v-400l-150 -150l150 -150v-450h-400v350l-100 100h-500v300h500l100 100v150l-100 100h-600v-1100h-400z" />
<glyph unicode="S" d="M100 300h1000l100 100v50l-100 100h-750l-250 250v350l250 250h1150l100 -300h-1000l-100 -100v-50l100 -100h750l250 -250v-350l-250 -250h-1150z" />
<glyph unicode="T" d="M100 1100v300h1500v-300h-550v-1100h-400v1100h-550z" />
<glyph unicode="U" d="M100 250v1150h400v-1000l100 -100h500l100 100v1000h400v-1150l-250 -250h-1000z" />
<glyph unicode="V" d="M100 300v1100h400v-920l300 -160h100l300 160v920h400v-1100l-610 -300h-280z" />
<glyph unicode="W" horiz-adv-x="2000" d="M100 250v1150h400v-1000l100 -100h200v1100h400v-1100h200l100 100v1000h400v-1150l-250 -250h-1300z" />
<glyph unicode="X" d="M100 0l527 697l-527 703h442l308 -408l308 408h442l-527 -703l527 -697h-449l-301 400l-301 -400h-449z" />
<glyph unicode="Y" d="M100 750v650h400v-480l300 -150h100l300 150v480h400v-650l-550 -279v-471h-400v471z" />
<glyph unicode="Z" d="M100 0v300l950 800h-950v300h1500v-300l-950 -800h950v-300h-1500z" />
<glyph unicode="[" horiz-adv-x="900" d="M100 0v1400h600l100 -300h-300v-800h300l-100 -300h-600z" />
<glyph unicode="\" horiz-adv-x="1100" d="M100 1400h420l480 -1400h-420z" />
<glyph unicode="]" horiz-adv-x="900" d="M100 300h300v800h-300l100 300h600v-1400h-600z" />
<glyph unicode="^" horiz-adv-x="1500" d="M100 800l370 600h560l370 -600h-430l-220 400l-220 -400h-430z" />
<glyph unicode="_" horiz-adv-x="900" d="M0 -150h900v-250h-900v250z" />
<glyph unicode="`" horiz-adv-x="800" d="M100 1550h410l190 -300h-410z" />
<glyph unicode="a" horiz-adv-x="1500" d="M100 250v200l250 250h550v-300h-300l-50 -50l50 -50h300l100 100v300l-100 100h-700l100 300h850l250 -250v-600l-250 -250h-800z" />
<glyph unicode="b" horiz-adv-x="1500" d="M100 250v1150h400v-1000l100 -100h300l100 100v300l-100 100h-300v300h550l250 -250v-600l-250 -250h-800z" />
<glyph unicode="c" horiz-adv-x="1500" d="M100 250v600l250 250h950l100 -300h-800l-100 -100v-300l100 -100h800l-100 -300h-950z" />
<glyph unicode="d" horiz-adv-x="1500" d="M100 250v600l250 250h550v-300h-300l-100 -100v-300l100 -100h300l100 100v1000h400v-1150l-250 -250h-800z" />
<glyph unicode="e" horiz-adv-x="1500" d="M100 250v600l250 250h800l250 -250v-200l-250 -250h-550v300h300l50 50l-50 50h-300l-100 -100v-300l100 -100h700l-100 -300h-850z" />
<glyph unicode="f" horiz-adv-x="1200" d="M100 700v300h200v150l250 250h450l100 -300h-300l-100 -100h400v-300h-400v-700h-400v700h-200z" />
<glyph unicode="g" horiz-adv-x="1500" d="M100 650v200l250 250h800l250 -250v-600l-250 -250h-850l-100 300h700l100 100v300l-100 100h-300l-50 -50l50 -50h300v-300h-550z" />
<glyph unicode="h" horiz-adv-x="1500" d="M100 0v1400h400v-300h650l250 -250v-850h-400v700l-100 100h-400v-800h-400z" />
<glyph unicode="i" horiz-adv-x="600" d="M100 0v900h400v-900h-400zM100 1100v300h400v-300h-400z" />
<glyph unicode="j" horiz-adv-x="1200" d="M100 300h500l100 100v500h400v-650l-250 -250h-650zM700 1100v300h400v-300h-400z" />
<glyph unicode="k" horiz-adv-x="1500" d="M100 0v1400h400v-650h200l280 350h420l-280 -350h30l250 -250v-500h-400v350l-100 100h-400v-450h-400z" />
<glyph unicode="l" horiz-adv-x="600" d="M100 0v1400h400v-1400h-400z" />
<glyph unicode="m" horiz-adv-x="2000" d="M100 0v850l250 250h1300l250 -250v-850h-400v700l-100 100h-200v-800h-400v800h-200l-100 -100v-700h-400z" />
<glyph unicode="n" horiz-adv-x="1500" d="M100 0v850l250 250h800l250 -250v-850h-400v700l-100 100h-300l-100 -100v-700h-400z" />
<glyph unicode="o" horiz-adv-x="1500" d="M100 250v600l250 250h800l250 -250v-600l-250 -250h-800zM500 400l100 -100h300l100 100v300l-100 100h-300l-100 -100v-300z" />
<glyph unicode="p" horiz-adv-x="1500" d="M100 0v850l250 250h800l250 -250v-300l-250 -250h-550v300h300l100 100l-100 100h-300l-100 -100v-700h-400z" />
<glyph unicode="q" horiz-adv-x="1500" d="M100 550v300l250 250h800l250 -250v-850h-400v700l-100 100h-300l-100 -100l100 -100h300v-300h-550z" />
<glyph unicode="r" horiz-adv-x="1200" d="M100 0v850l250 250h650l100 -300h-500l-100 -100v-700h-400z" />
<glyph unicode="s" horiz-adv-x="1500" d="M100 300h800l50 50l-50 50h-550l-250 250v200l250 250h950l100 -300h-800l-50 -50l50 -50h550l250 -250v-200l-250 -250h-950z" />
<glyph unicode="t" horiz-adv-x="1200" d="M100 800v300h200v200l400 100v-300h400v-300h-400v-400l100 -100h300l-100 -300h-450l-250 250v550h-200z" />
<glyph unicode="u" horiz-adv-x="1500" d="M100 250v850h400v-700l100 -100h300l100 100v700h400v-850l-250 -250h-800z" />
<glyph unicode="v" horiz-adv-x="1500" d="M100 300v800h400v-680l200 -100h100l200 100v680h400v-800l-510 -300h-280z" />
<glyph unicode="w" horiz-adv-x="2000" d="M100 250v850h400v-700l100 -100h200v800h400v-800h200l100 100v700h400v-850l-250 -250h-1300z" />
<glyph unicode="x" horiz-adv-x="1500" d="M100 0l425 550l-425 550h450l200 -259l200 259h450l-425 -550l425 -550h-450l-200 259l-200 -259h-450z" />
<glyph unicode="y" horiz-adv-x="1500" d="M100 650v450h400v-300l100 -100h400v400h400v-850l-250 -250h-850l-100 300h700l100 100h-650z" />
<glyph unicode="z" horiz-adv-x="1500" d="M100 0v300l720 500h-720v300h1300v-300l-720 -500h720v-300h-1300z" />
<glyph unicode="{" horiz-adv-x="1400" d="M100 550v300h300l100 100v200l250 250h450l100 -300h-300l-100 -100v-150l-150 -150l150 -150v-150l100 -100h300l-100 -300h-450l-250 250v200l-100 100h-300z" />
<glyph unicode="|" horiz-adv-x="600" d="M100 0v1400h400v-1400h-400z" />
<glyph unicode="}" horiz-adv-x="1400" d="M100 300h300l100 100v150l150 150l-150 150v150l-100 100h-300l100 300h450l250 -250v-200l100 -100h300v-300h-300l-100 -100v-200l-250 -250h-450z" />
<glyph unicode="~" d="M100 500v150l250 250h520l150 -150h130l50 50v100h400v-150l-250 -250h-530l-150 150h-120l-50 -50v-100h-400z" />
<glyph unicode="&#xa1;" horiz-adv-x="600" d="M100 0v900h400v-900h-400zM100 1100v300h400v-300h-400z" />
<glyph unicode="&#xa2;" horiz-adv-x="1500" d="M100 550v600l250 250h400v200h200v-200h350l100 -300h-450v-500h450l-100 -300h-350v-200h-200v200h-400zM500 700l100 -100h150v500h-150l-100 -100v-300z" />
<glyph unicode="&#xa3;" d="M100 0v300h200v250h-200v300h200v300l250 250h750l100 -300h-600l-100 -100v-150h500v-300h-500v-250h400l100 100v100h400v-250l-250 -250h-1250z" />
<glyph unicode="&#xa5;" d="M100 850v550h400v-380l300 -150h100l300 150v380h400v-550l-493 -250h343v-200h-400v-100h400v-200h-400v-100h-400v100h-400v200h400v100h-400v200h343z" />
<glyph unicode="&#xa6;" horiz-adv-x="600" d="M100 0v600h400v-600h-400zM100 800v600h400v-600h-400z" />
<glyph unicode="&#xa8;" horiz-adv-x="1200" d="M100 1250v300h400v-300h-400zM700 1250v300h400v-300h-400z" />
<glyph unicode="&#xa9;" horiz-adv-x="2100" d="M100 150v1100l250 250h1400l250 -250v-1100l-250 -250h-1400zM500 300l100 -100h900l100 100v800l-100 100h-900l-100 -100v-800zM700 500v400l150 150h450l100 -220h-370l-60 -60v-150l50 -50h380l-100 -220h-450z" />
<glyph unicode="&#xab;" horiz-adv-x="1300" d="M100 600v200l500 500v-450l-150 -150l150 -150v-450zM700 600v200l500 500v-450l-150 -150l150 -150v-450z" />
<glyph unicode="&#xac;" horiz-adv-x="1100" d="M100 550v300h900v-600h-400v300h-500z" />
<glyph unicode="&#xad;" horiz-adv-x="1100" d="M100 550v300h900v-300h-900z" />
<glyph unicode="&#xae;" horiz-adv-x="2100" d="M100 150v1100l250 250h1400l250 -250v-1100l-250 -250h-1400zM500 300l100 -100h900l100 100v800l-100 100h-900l-100 -100v-800zM700 350v700h550l150 -150v-190l-80 -80l80 -80v-210h-270v100l-60 60h-100v-150h-270zM970 720h110l50 50l-60 60h-100v-110z" />
<glyph unicode="&#xb0;" horiz-adv-x="1000" d="M100 850v300l250 250h300l250 -250v-300l-250 -250h-300zM350 950l100 -100h100l100 100v100l-100 100h-100l-100 -100v-100z" />
<glyph unicode="&#xb1;" horiz-adv-x="1300" d="M100 0v250h1100v-250h-1100zM100 650v300h350v300h400v-300h350v-300h-350v-300h-400v300h-350z" />
<glyph unicode="&#xb4;" horiz-adv-x="800" d="M100 1250l190 300h410l-190 -300h-410z" />
<glyph unicode="&#xb5;" horiz-adv-x="1500" d="M100 0v1100h400v-550h400l100 100v450h400v-600l-250 -250h-650v-250h-400z" />
<glyph unicode="&#xb6;" d="M100 750v400l250 250h1250v-1400h-400v1100h-150v-1100h-400v500h-300z" />
<glyph unicode="&#xb7;" horiz-adv-x="600" d="M100 550v300h400v-300h-400z" />
<glyph unicode="&#xb8;" horiz-adv-x="800" d="M100 -450l190 300h410l-190 -300h-410z" />
<glyph unicode="&#xbb;" horiz-adv-x="1300" d="M100 100v450l150 150l-150 150v450l500 -500v-200zM700 100v450l150 150l-150 150v450l500 -500v-200z" />
<glyph unicode="&#xbf;" d="M100 250v350l250 250h500l50 50h400v-100l-250 -250h-450l-100 -100v-50l100 -100h1000l-100 -300h-1150zM900 1100v300h400v-300h-400z" />
<glyph unicode="&#xc0;" d="M100 0v1100l610 300h280l610 -300v-1100h-400v450h-600v300h600v170l-300 160h-100l-300 -160v-920h-400zM450 1850h410l190 -300h-410z" />
<glyph unicode="&#xc1;" d="M100 0v1100l610 300h280l610 -300v-1100h-400v450h-600v300h600v170l-300 160h-100l-300 -160v-920h-400zM650 1550l190 300h410l-190 -300h-410z" />
<glyph unicode="&#xc2;" d="M100 0v1100l610 300h280l610 -300v-1100h-400v450h-600v300h600v170l-300 160h-100l-300 -160v-920h-400zM300 1550l250 400h610l240 -400h-430l-120 200l-120 -200h-430z" />
<glyph unicode="&#xc3;" d="M100 0v1100l610 300h280l610 -300v-1100h-400v450h-600v300h600v170l-300 160h-100l-300 -160v-920h-400zM315 1550v150l200 200h320l130 -130h120l30 30v100h270v-150l-200 -200h-318l-2 -4l-130 134h-120l-30 -30v-100h-270z" />
<glyph unicode="&#xc4;" d="M100 0v1100l610 300h280l610 -300v-1100h-400v450h-600v300h600v170l-300 160h-100l-300 -160v-920h-400zM350 1550v300h400v-300h-400zM950 1550v300h400v-300h-400z" />
<glyph unicode="&#xc5;" d="M100 0v1100l610 300h280l610 -300v-1100h-400v450h-600v300h600v170l-300 160h-100l-300 -160v-920h-400zM525 1700v200l150 150h350l150 -150v-200l-150 -150h-350zM775 1775l50 -50h50l50 50v50l-50 50h-50l-50 -50v-50z" />
<glyph unicode="&#xc6;" horiz-adv-x="2800" d="M100 0v1100l610 300h280l308 -152l152 152h1150l100 -300h-1000l-100 -100v-150h1100v-300h-1100v-150l100 -100h1000l-100 -300h-1150l-250 250v200h-600v300h600v170l-300 160h-100l-300 -160v-920h-400z" />
<glyph unicode="&#xc7;" d="M100 250v900l250 250h1150l100 -300h-1000l-100 -100v-600l100 -100h1000l-100 -300h-1150zM550 -450l190 300h410l-190 -300h-410z" />
<glyph unicode="&#xc8;" d="M100 250v900l250 250h1150l100 -300h-1000l-100 -100v-150h1100v-300h-1100v-150l100 -100h1000l-100 -300h-1150zM450 1850h410l190 -300h-410z" />
<glyph unicode="&#xc9;" d="M100 250v900l250 250h1150l100 -300h-1000l-100 -100v-150h1100v-300h-1100v-150l100 -100h1000l-100 -300h-1150zM650 1550l190 300h410l-190 -300h-410z" />
<glyph unicode="&#xca;" d="M100 250v900l250 250h1150l100 -300h-1000l-100 -100v-150h1100v-300h-1100v-150l100 -100h1000l-100 -300h-1150zM300 1550l250 400h610l240 -400h-430l-120 200l-120 -200h-430z" />
<glyph unicode="&#xcb;" d="M100 250v900l250 250h1150l100 -300h-1000l-100 -100v-150h1100v-300h-1100v-150l100 -100h1000l-100 -300h-1150zM350 1550v300h400v-300h-400zM950 1550v300h400v-300h-400z" />
<glyph unicode="&#xcc;" horiz-adv-x="800" d="M100 1850h410l190 -300h-410zM300 0v1400h400v-1400h-400z" />
<glyph unicode="&#xcd;" horiz-adv-x="800" d="M100 0v1400h400v-1400h-400zM100 1550l190 300h410l-190 -300h-410z" />
<glyph unicode="&#xce;" horiz-adv-x="1300" d="M100 1550l250 400h610l240 -400h-430l-120 200l-120 -200h-430zM450 0v1400h400v-1400h-400z" />
<glyph unicode="&#xcf;" horiz-adv-x="1200" d="M100 1550v300h400v-300h-400zM400 0v1400h400v-1400h-400zM700 1550v300h400v-300h-400z" />
<glyph unicode="&#xd0;" horiz-adv-x="1900" d="M100 550v300h200v550h1250l250 -250v-900l-250 -250h-1250v550h-200zM700 300h600l100 100v600l-100 100h-600v-250h400v-300h-400v-250z" />
<glyph unicode="&#xd1;" d="M100 0v1150l250 250h1000l250 -250v-1150h-400v1000l-100 100h-500l-100 -100v-1000h-400zM315 1550v150l200 200h320l130 -130h120l30 30v100h270v-150l-200 -200h-318l-2 -4l-130 134h-120l-30 -30v-100h-270z" />
<glyph unicode="&#xd2;" d="M100 250v900l250 250h1000l250 -250v-900l-250 -250h-1000zM450 1850h410l190 -300h-410zM500 400l100 -100h500l100 100v600l-100 100h-500l-100 -100v-600z" />
<glyph unicode="&#xd3;" d="M100 250v900l250 250h1000l250 -250v-900l-250 -250h-1000zM500 400l100 -100h500l100 100v600l-100 100h-500l-100 -100v-600zM650 1550l190 300h410l-190 -300h-410z" />
<glyph unicode="&#xd4;" d="M100 250v900l250 250h1000l250 -250v-900l-250 -250h-1000zM300 1550l250 400h610l240 -400h-430l-120 200l-120 -200h-430zM500 400l100 -100h500l100 100v600l-100 100h-500l-100 -100v-600z" />
<glyph unicode="&#xd5;" d="M100 250v900l250 250h1000l250 -250v-900l-250 -250h-1000zM315 1550v150l200 200h320l130 -130h120l30 30v100h270v-150l-200 -200h-318l-2 -4l-130 134h-120l-30 -30v-100h-270zM500 400l100 -100h500l100 100v600l-100 100h-500l-100 -100v-600z" />
<glyph unicode="&#xd6;" d="M100 250v900l250 250h1000l250 -250v-900l-250 -250h-1000zM350 1550v300h400v-300h-400zM500 400l100 -100h500l100 100v600l-100 100h-500l-100 -100v-600zM950 1550v300h400v-300h-400z" />
<glyph unicode="&#xd7;" horiz-adv-x="1221" d="M100 423l267 268l-267 267l243 243l267 -267l268 267l243 -243l-268 -267l268 -268l-243 -243l-268 268l-267 -268z" />
<glyph unicode="&#xd8;" d="M100 250v900l250 250h1000l250 -250v-900l-250 -250h-1000zM500 500l450 600h-350l-100 -100v-500zM750 300h350l100 100v500z" />
<glyph unicode="&#xd9;" d="M100 250v1150h400v-1000l100 -100h500l100 100v1000h400v-1150l-250 -250h-1000zM450 1850h410l190 -300h-410z" />
<glyph unicode="&#xda;" d="M100 250v1150h400v-1000l100 -100h500l100 100v1000h400v-1150l-250 -250h-1000zM650 1550l190 300h410l-190 -300h-410z" />
<glyph unicode="&#xdb;" d="M100 250v1150h400v-1000l100 -100h500l100 100v1000h400v-1150l-250 -250h-1000zM300 1550l250 400h610l240 -400h-430l-120 200l-120 -200h-430z" />
<glyph unicode="&#xdc;" d="M100 250v1150h400v-1000l100 -100h500l100 100v1000h400v-1150l-250 -250h-1000zM350 1550v300h400v-300h-400zM950 1550v300h400v-300h-400z" />
<glyph unicode="&#xdd;" d="M100 750v650h400v-480l300 -150h100l300 150v480h400v-650l-550 -279v-471h-400v471zM650 1550l190 300h410l-190 -300h-410z" />
<glyph unicode="&#xde;" d="M100 0v1400h400v-250h850l250 -250v-400l-250 -250h-750v300h500l100 100v100l-100 100h-600v-850h-400z" />
<glyph unicode="&#xdf;" d="M100 0v1150l250 250h970l250 -250v-300l-135 -135l165 -165v-300l-250 -250h-750v300h500l100 100v50l-100 100h-500v300h470l100 100v50l-100 100h-470l-100 -100v-1000h-400z" />
<glyph unicode="&#xe0;" horiz-adv-x="1500" d="M100 250v200l250 250h550v-300h-300l-50 -50l50 -50h300l100 100v300l-100 100h-700l100 300h850l250 -250v-600l-250 -250h-800zM350 1550h410l190 -300h-410z" />
<glyph unicode="&#xe1;" horiz-adv-x="1500" d="M100 250v200l250 250h550v-300h-300l-50 -50l50 -50h300l100 100v300l-100 100h-700l100 300h850l250 -250v-600l-250 -250h-800zM550 1250l190 300h410l-190 -300h-410z" />
<glyph unicode="&#xe2;" horiz-adv-x="1500" d="M100 250v200l250 250h550v-300h-300l-50 -50l50 -50h300l100 100v300l-100 100h-700l100 300h850l250 -250v-600l-250 -250h-800zM200 1250l250 400h610l240 -400h-430l-120 200l-120 -200h-430z" />
<glyph unicode="&#xe3;" horiz-adv-x="1500" d="M100 250v200l250 250h550v-300h-300l-50 -50l50 -50h300l100 100v300l-100 100h-700l100 300h850l250 -250v-600l-250 -250h-800zM215 1250v150l200 200h320l130 -130h120l30 30v100h270v-150l-200 -200h-318l-2 -4l-130 134h-120l-30 -30v-100h-270z" />
<glyph unicode="&#xe4;" horiz-adv-x="1500" d="M100 250v200l250 250h550v-300h-300l-50 -50l50 -50h300l100 100v300l-100 100h-700l100 300h850l250 -250v-600l-250 -250h-800zM250 1250v300h400v-300h-400zM850 1250v300h400v-300h-400z" />
<glyph unicode="&#xe5;" horiz-adv-x="1500" d="M100 250v200l250 250h550v-300h-300l-50 -50l50 -50h300l100 100v300l-100 100h-700l100 300h850l250 -250v-600l-250 -250h-800zM425 1400v200l150 150h350l150 -150v-200l-150 -150h-350zM675 1475l50 -50h50l50 50v50l-50 50h-50l-50 -50v-50z" />
<glyph unicode="&#xe6;" horiz-adv-x="2400" d="M100 250v200l250 250h550v-300h-300l-50 -50l50 -50h300l100 100v300l-100 100h-700l100 300h800l100 -100l100 100h750l250 -250v-200l-250 -250h-550v300h300l50 50l-50 50h-300l-100 -100v-300l100 -100h700l-100 -300h-800l-100 100l-100 -100h-750z" />
<glyph unicode="&#xe7;" horiz-adv-x="1500" d="M100 250v600l250 250h950l100 -300h-800l-100 -100v-300l100 -100h800l-100 -300h-950zM450 -450l190 300h410l-190 -300h-410z" />
<glyph unicode="&#xe8;" horiz-adv-x="1500" d="M100 250v600l250 250h800l250 -250v-200l-250 -250h-550v300h300l50 50l-50 50h-300l-100 -100v-300l100 -100h700l-100 -300h-850zM350 1550h410l190 -300h-410z" />
<glyph unicode="&#xe9;" horiz-adv-x="1500" d="M100 250v600l250 250h800l250 -250v-200l-250 -250h-550v300h300l50 50l-50 50h-300l-100 -100v-300l100 -100h700l-100 -300h-850zM550 1250l190 300h410l-190 -300h-410z" />
<glyph unicode="&#xea;" horiz-adv-x="1500" d="M100 250v600l250 250h800l250 -250v-200l-250 -250h-550v300h300l50 50l-50 50h-300l-100 -100v-300l100 -100h700l-100 -300h-850zM200 1250l250 400h610l240 -400h-430l-120 200l-120 -200h-430z" />
<glyph unicode="&#xeb;" horiz-adv-x="1500" d="M100 250v600l250 250h800l250 -250v-200l-250 -250h-550v300h300l50 50l-50 50h-300l-100 -100v-300l100 -100h700l-100 -300h-850zM250 1250v300h400v-300h-400zM850 1250v300h400v-300h-400z" />
<glyph unicode="&#xec;" horiz-adv-x="800" d="M100 1550h410l190 -300h-410zM300 0v1100h400v-1100h-400z" />
<glyph unicode="&#xed;" horiz-adv-x="800" d="M100 0v1100h400v-1100h-400zM100 1250l190 300h410l-190 -300h-410z" />
<glyph unicode="&#xee;" horiz-adv-x="1300" d="M100 1250l250 400h610l240 -400h-430l-120 200l-120 -200h-430zM450 0v1100h400v-1100h-400z" />
<glyph unicode="&#xef;" horiz-adv-x="1200" d="M100 1250v300h400v-300h-400zM400 0v1100h400v-1100h-400zM700 1250v300h400v-300h-400z" />
<glyph unicode="&#xf0;" d="M100 250v400l250 250h550v-300h-300l-100 -100v-100l100 -100h300l100 100v600h-400v250h400v150h400v-150h200v-250h-200v-750l-250 -250h-800z" />
<glyph unicode="&#xf1;" horiz-adv-x="1500" d="M100 0v850l250 250h800l250 -250v-850h-400v700l-100 100h-300l-100 -100v-700h-400zM215 1250v150l200 200h320l130 -130h120l30 30v100h270v-150l-200 -200h-318l-2 -4l-130 134h-120l-30 -30v-100h-270z" />
<glyph unicode="&#xf2;" horiz-adv-x="1500" d="M100 250v600l250 250h800l250 -250v-600l-250 -250h-800zM350 1550h410l190 -300h-410zM500 400l100 -100h300l100 100v300l-100 100h-300l-100 -100v-300z" />
<glyph unicode="&#xf3;" horiz-adv-x="1500" d="M100 250v600l250 250h800l250 -250v-600l-250 -250h-800zM500 400l100 -100h300l100 100v300l-100 100h-300l-100 -100v-300zM550 1250l190 300h410l-190 -300h-410z" />
<glyph unicode="&#xf4;" horiz-adv-x="1500" d="M100 250v600l250 250h800l250 -250v-600l-250 -250h-800zM200 1250l250 400h610l240 -400h-430l-120 200l-120 -200h-430zM500 400l100 -100h300l100 100v300l-100 100h-300l-100 -100v-300z" />
<glyph unicode="&#xf5;" horiz-adv-x="1500" d="M100 250v600l250 250h800l250 -250v-600l-250 -250h-800zM215 1250v150l200 200h320l130 -130h120l30 30v100h270v-150l-200 -200h-318l-2 -4l-130 134h-120l-30 -30v-100h-270zM500 400l100 -100h300l100 100v300l-100 100h-300l-100 -100v-300z" />
<glyph unicode="&#xf6;" horiz-adv-x="1500" d="M100 250v600l250 250h800l250 -250v-600l-250 -250h-800zM250 1250v300h400v-300h-400zM500 400l100 -100h300l100 100v300l-100 100h-300l-100 -100v-300zM850 1250v300h400v-300h-400z" />
<glyph unicode="&#xf7;" horiz-adv-x="1300" d="M100 550v300h1100v-300h-1100zM450 50v300h400v-300h-400zM450 1050v300h400v-300h-400z" />
<glyph unicode="&#xf8;" horiz-adv-x="1500" d="M100 250v600l250 250h800l250 -250v-600l-250 -250h-800zM500 500l3 -4l307 304h-210l-100 -100v-200zM670 300h230l100 100l2 222z" />
<glyph unicode="&#xf9;" horiz-adv-x="1500" d="M100 250v850h400v-700l100 -100h300l100 100v700h400v-850l-250 -250h-800zM350 1550h410l190 -300h-410z" />
<glyph unicode="&#xfa;" horiz-adv-x="1500" d="M100 250v850h400v-700l100 -100h300l100 100v700h400v-850l-250 -250h-800zM550 1250l190 300h410l-190 -300h-410z" />
<glyph unicode="&#xfb;" horiz-adv-x="1500" d="M100 250v850h400v-700l100 -100h300l100 100v700h400v-850l-250 -250h-800zM200 1250l250 400h610l240 -400h-430l-120 200l-120 -200h-430z" />
<glyph unicode="&#xfc;" horiz-adv-x="1500" d="M100 250v850h400v-700l100 -100h300l100 100v700h400v-850l-250 -250h-800zM250 1250v300h400v-300h-400zM850 1250v300h400v-300h-400z" />
<glyph unicode="&#xfd;" horiz-adv-x="1500" d="M100 650v450h400v-300l100 -100h400v400h400v-850l-250 -250h-850l-100 300h700l100 100h-650zM550 1250l190 300h410l-190 -300h-410z" />
<glyph unicode="&#xfe;" horiz-adv-x="1500" d="M100 0v1400h400v-300h650l250 -250v-400l-250 -250h-550v300h300l100 100v100l-100 100h-400v-800h-400z" />
<glyph unicode="&#xff;" horiz-adv-x="1500" d="M100 650v450h400v-300l100 -100h400v400h400v-850l-250 -250h-850l-100 300h700l100 100h-650zM250 1250v300h400v-300h-400zM850 1250v300h400v-300h-400z" />
<glyph unicode="&#x152;" horiz-adv-x="2800" d="M100 250v900l250 250h900l150 -150l150 150h1050l100 -300h-1000l-100 -100v-150h1100v-300h-1100v-150l100 -100h1000l-100 -300h-1050l-150 150l-150 -150h-900zM500 400l100 -100h500l100 100v600l-100 100h-500l-100 -100v-600z" />
<glyph unicode="&#x153;" horiz-adv-x="2400" d="M100 250v600l250 250h700l150 -150l150 150h700l250 -250v-200l-250 -250h-550v300h300l50 50l-50 50h-300l-100 -100v-300l100 -100h700l-100 -300h-750l-150 150l-150 -150h-700zM500 400l100 -100h300l100 100v300l-100 100h-300l-100 -100v-300z" />
<glyph unicode="&#x178;" d="M100 750v650h400v-480l300 -150h100l300 150v480h400v-650l-550 -279v-471h-400v471zM350 1550v300h400v-300h-400zM950 1550v300h400v-300h-400z" />
<glyph unicode="&#x2c6;" horiz-adv-x="1300" d="M100 1250l250 400h610l240 -400h-430l-120 200l-120 -200h-430z" />
<glyph unicode="&#x2dc;" horiz-adv-x="1270" d="M100 1250v150l200 200h320l130 -130h120l30 30v100h270v-150l-200 -200h-318l-2 -4l-130 134h-120l-30 -30v-100h-270z" />
<glyph unicode="&#x2000;" horiz-adv-x="1025" />
<glyph unicode="&#x2001;" horiz-adv-x="2050" />
<glyph unicode="&#x2002;" horiz-adv-x="1025" />
<glyph unicode="&#x2003;" horiz-adv-x="2050" />
<glyph unicode="&#x2004;" horiz-adv-x="683" />
<glyph unicode="&#x2005;" horiz-adv-x="512" />
<glyph unicode="&#x2006;" horiz-adv-x="341" />
<glyph unicode="&#x2007;" horiz-adv-x="341" />
<glyph unicode="&#x2008;" horiz-adv-x="256" />
<glyph unicode="&#x2009;" horiz-adv-x="410" />
<glyph unicode="&#x200a;" horiz-adv-x="113" />
<glyph unicode="&#x2010;" horiz-adv-x="1100" d="M100 550v300h900v-300h-900z" />
<glyph unicode="&#x2011;" horiz-adv-x="1100" d="M100 550v300h900v-300h-900z" />
<glyph unicode="&#x2012;" horiz-adv-x="1100" d="M100 550v300h900v-300h-900z" />
<glyph unicode="&#x2013;" horiz-adv-x="1100" d="M100 550v300h900v-300h-900z" />
<glyph unicode="&#x2014;" horiz-adv-x="1500" d="M100 550v300h1300v-300h-1300z" />
<glyph unicode="&#x2018;" horiz-adv-x="600" d="M100 950v450h400v-500z" />
<glyph unicode="&#x2019;" horiz-adv-x="600" d="M100 900v500h400v-450z" />
<glyph unicode="&#x201a;" horiz-adv-x="600" d="M100 200h400v-450l-400 -50v500z" />
<glyph unicode="&#x201c;" horiz-adv-x="1200" d="M100 950v450h400v-500zM700 950v450h400v-500z" />
<glyph unicode="&#x201d;" horiz-adv-x="1200" d="M100 900v500h400v-450zM700 900v500h400v-450z" />
<glyph unicode="&#x201e;" horiz-adv-x="1200" d="M100 200h400v-450l-400 -50v500zM700 200h400v-450l-400 -50v500z" />
<glyph unicode="&#x2022;" horiz-adv-x="600" d="M100 500v400h400v-400h-400z" />
<glyph unicode="&#x2026;" horiz-adv-x="1800" d="M100 0v300h400v-300h-400zM700 0v300h400v-300h-400zM1300 0v300h400v-300h-400z" />
<glyph unicode="&#x202f;" horiz-adv-x="410" />
<glyph unicode="&#x2039;" horiz-adv-x="700" d="M100 600v200l500 500v-450l-150 -150l150 -150v-450z" />
<glyph unicode="&#x203a;" horiz-adv-x="700" d="M100 100v450l150 150l-150 150v450l500 -500v-200z" />
<glyph unicode="&#x205f;" horiz-adv-x="512" />
<glyph unicode="&#x20ac;" d="M100 400v250h200v100h-200v250h200v150l250 250h950l100 -300h-800l-100 -100h598l-66 -250h-532v-100h507l-65 -250h-442l100 -100h800l-100 -300h-950l-250 250v150h-200z" />
<glyph unicode="&#x2122;" horiz-adv-x="2300" d="M100 1170v230h800v-230h-265v-470h-270v470h-265zM1000 700v550l150 150h900l150 -150v-550h-260v420l-60 60h-145v-480h-270v480h-145l-50 -50v-430h-270z" />
<glyph unicode="&#x25fc;" horiz-adv-x="1100" d="M0 0v1100h1100v-1100h-1100z" />
</font>
</defs>
</svg>
