<?xml version="1.0" encoding="UTF-8" standalone="no"?>
<!-- Created with Inkscape (http://www.inkscape.org/) -->

<svg
   xmlns:dc="http://purl.org/dc/elements/1.1/"
   xmlns:cc="http://creativecommons.org/ns#"
   xmlns:rdf="http://www.w3.org/1999/02/22-rdf-syntax-ns#"
   xmlns:svg="http://www.w3.org/2000/svg"
   xmlns="http://www.w3.org/2000/svg"
   xmlns:xlink="http://www.w3.org/1999/xlink"
   xmlns:sodipodi="http://sodipodi.sourceforge.net/DTD/sodipodi-0.dtd"
   xmlns:inkscape="http://www.inkscape.org/namespaces/inkscape"
   width="100"
   height="100"
   id="svg3417"
   version="1.1"
   inkscape:version="0.48.4 r9939"
   sodipodi:docname="google-plus.svg">
  <defs
     id="defs3419">
    <linearGradient
       id="linearGradient3793">
      <stop
         style="stop-color:#333333;stop-opacity:1;"
         offset="0"
         id="stop3795" />
      <stop
         id="stop3803"
         offset="0.5"
         style="stop-color:#333333;stop-opacity:1;" />
      <stop
         id="stop3801"
         offset="0.79654509"
         style="stop-color:#333333;stop-opacity:0.46666667;" />
      <stop
         style="stop-color:#ffffff;stop-opacity:0;"
         offset="1"
         id="stop3797" />
    </linearGradient>
    <radialGradient
       inkscape:collect="always"
       xlink:href="#linearGradient3793"
       id="radialGradient3474"
       gradientUnits="userSpaceOnUse"
       cx="290.6568"
       cy="761.70538"
       fx="290.6568"
       fy="761.70538"
       r="382.98306" />
    <radialGradient
       inkscape:collect="always"
       xlink:href="#linearGradient3793-0"
       id="radialGradient3005"
       gradientUnits="userSpaceOnUse"
       cx="290.6568"
       cy="761.70538"
       fx="290.6568"
       fy="761.70538"
       r="382.98306" />
    <linearGradient
       id="linearGradient3793-0">
      <stop
         style="stop-color:#333333;stop-opacity:1;"
         offset="0"
         id="stop3795-4" />
      <stop
         id="stop3803-1"
         offset="0.5"
         style="stop-color:#333333;stop-opacity:1;" />
      <stop
         id="stop3801-1"
         offset="0.79654509"
         style="stop-color:#333333;stop-opacity:0.46666667;" />
      <stop
         style="stop-color:#ffffff;stop-opacity:0;"
         offset="1"
         id="stop3797-0" />
    </linearGradient>
    <radialGradient
       inkscape:collect="always"
       xlink:href="#linearGradient3793-0"
       id="radialGradient3616"
       gradientUnits="userSpaceOnUse"
       cx="290.6568"
       cy="761.70538"
       fx="290.6568"
       fy="761.70538"
       r="382.98306" />
  </defs>
  <sodipodi:namedview
     id="base"
     pagecolor="#ffffff"
     bordercolor="#666666"
     borderopacity="1.0"
     inkscape:pageopacity="0.0"
     inkscape:pageshadow="2"
     inkscape:zoom="0.35"
     inkscape:cx="375"
     inkscape:cy="62.857143"
     inkscape:document-units="px"
     inkscape:current-layer="layer1"
     showgrid="false"
     inkscape:window-width="615"
     inkscape:window-height="364"
     inkscape:window-x="318"
     inkscape:window-y="157"
     inkscape:window-maximized="0" />
  <metadata
     id="metadata3422">
    <rdf:RDF>
      <cc:Work
         rdf:about="">
        <dc:format>image/svg+xml</dc:format>
        <dc:type
           rdf:resource="http://purl.org/dc/dcmitype/StillImage" />
        <dc:title></dc:title>
      </cc:Work>
    </rdf:RDF>
  </metadata>
  <g
     inkscape:label="Calque 1"
     inkscape:groupmode="layer"
     id="layer1"
     transform="translate(0,-952.36218)">
    <g
       id="g3604"
       transform="translate(-535.71428,-267.14289)">
      <g
         id="g3162"
         transform="matrix(0.96946946,0,0,0.96946946,537.24081,1221.0316)">
        <path
           sodipodi:type="arc"
           style="color:#000000;fill:url(#radialGradient3616);fill-opacity:1;fill-rule:nonzero;stroke:none;stroke-width:0;marker:none;visibility:visible;display:inline;overflow:visible;enable-background:accumulate"
           id="path3791"
           sodipodi:cx="290.6568"
           sodipodi:cy="761.70538"
           sodipodi:rx="382.98306"
           sodipodi:ry="382.98306"
           d="m 673.63986,761.70538 c 0,211.51571 -171.46736,382.98302 -382.98306,382.98302 -211.515706,0 -382.983063,-171.46731 -382.983063,-382.98302 0,-211.5157 171.467357,-382.98306 382.983063,-382.98306 211.5157,0 382.98306,171.46736 382.98306,382.98306 z"
           transform="matrix(0.11725666,0,0,0.11725666,15.918553,-39.31503)" />
        <path
           style="color:#000000;fill:#ffffff;fill-opacity:0.24705882;stroke:none;stroke-width:1;marker:none;visibility:visible;display:inline;overflow:visible;enable-background:accumulate"
           d="m 17.0625,10 5,5 55.875,0 5,-5 -65.875,0 z M 10,17.0625 l 0,65.875 5,-5 0,-55.875 -5,-5 z m 80,0 -5,5 0,55.875 5,5 0,-65.875 z M 22.0625,85 l -5,5 65.875,0 -5,-5 -55.875,0 z"
           id="rect3049"
           inkscape:connector-curvature="0" />
        <path
           id="path3828"
           d="m 23.238281,17.5 4.0625,4.0625 45.398437,0 4.0625,-4.0625 -53.523437,0 z M 17.5,23.238281 l 0,53.523437 4.0625,-4.0625 0,-45.398437 -4.0625,-4.0625 z m 65,0 -4.0625,4.0625 0,45.398437 4.0625,4.0625 0,-53.523437 z M 27.300781,78.4375 l -4.0625,4.0625 53.523437,0 -4.0625,-4.0625 -45.398437,0 z"
           style="color:#000000;fill:#ffffff;fill-opacity:0.24705882;stroke:none;stroke-width:1;marker:none;visibility:visible;display:inline;overflow:visible;enable-background:accumulate"
           inkscape:connector-curvature="0" />
        <path
           inkscape:connector-curvature="0"
           style="color:#000000;fill:#ffffff;fill-opacity:0.24705882;stroke:none;stroke-width:1;marker:none;visibility:visible;display:inline;overflow:visible;enable-background:accumulate"
           d="m 29.414062,25 3.125,3.125 34.921875,0 3.125,-3.125 -41.171875,0 z M 25,29.414062 l 0,41.171875 3.125,-3.125 0,-34.921875 -3.125,-3.125 z m 50,0 -3.125,3.125 0,34.921875 3.125,3.125 0,-41.171875 z M 32.539062,71.875 l -3.125,3.125 41.171875,0 -3.125,-3.125 -34.921875,0 z"
           id="path3830" />
        <path
           id="path3832"
           d="m -1.5746009,45.006058 7.0710679,0 39.509591,-39.509591 0,-7.0710679 -46.5806589,46.5806589 z m 0,9.987884 46.5806589,46.580658 0,-7.071067 -39.509591,-39.509591 -7.0710679,0 z m 56.5685429,-56.5685429 0,7.0710679 39.509591,39.509591 7.071067,0 -46.580658,-46.5806589 z m 0,96.0781339 0,7.071067 46.580658,-46.580658 -7.071067,0 -39.509591,39.509591 z"
           style="color:#000000;fill:#ffffff;fill-opacity:0.24705882;stroke:none;stroke-width:1;marker:none;visibility:visible;display:inline;overflow:visible;enable-background:accumulate"
           inkscape:connector-curvature="0" />
        <path
           inkscape:connector-curvature="0"
           style="color:#000000;fill:#ffffff;fill-opacity:0.24705882;stroke:none;stroke-width:1;marker:none;visibility:visible;display:inline;overflow:visible;enable-background:accumulate"
           d="m 8.0956366,45.942423 5.7452424,0 32.101543,-32.101543 0,-5.7452427 L 8.0956366,45.942423 z m 0,8.115154 37.8467854,37.846786 0,-5.745243 -32.101543,-32.101543 -5.7452424,0 z M 54.057577,8.0956366 l 0,5.7452424 32.101543,32.101543 5.745243,0 L 54.057577,8.0956366 z m 0,78.0634844 0,5.745242 37.846786,-37.846785 -5.745243,0 -32.101543,32.101543 z"
           id="path3834" />
        <path
           id="path3836"
           d="m 17.765874,46.878787 4.419417,0 24.693495,-24.693495 0,-4.419417 -29.112912,29.112912 z m 0,6.242426 29.112912,29.112912 0,-4.419417 -24.693495,-24.693495 -4.419417,0 z m 35.355339,-35.355339 0,4.419417 24.693495,24.693495 4.419417,0 -29.112912,-29.112912 z m 0,60.048835 0,4.419417 29.112912,-29.112912 -4.419417,0 -24.693495,24.693495 z"
           style="color:#000000;fill:#ffffff;fill-opacity:0.24705882;stroke:none;stroke-width:1;marker:none;visibility:visible;display:inline;overflow:visible;enable-background:accumulate"
           inkscape:connector-curvature="0" />
      </g>
      <g
         transform="matrix(0.89291915,0,0,0.89291915,564.92445,1206.9806)"
         style="fill:#ffffff;fill-opacity:1;display:inline"
         id="g3">
        <path
           style="fill:#ffffff;fill-opacity:1"
           id="path5"
           d="m 31.536,63.927 h -6.082 v -3.989 c 0,-1.496 0.993,-1.848 1.691,-1.848 h 4.292 v -6.585 l -5.911,-0.024 c -6.562,0 -8.056,4.912 -8.056,8.056 v 4.391 h -3.794 v 6.786 h 3.794 v 19.204 h 7.983 V 70.713 h 5.386 l 0.697,-6.786 z"
           inkscape:connector-curvature="0" />
      </g>
    </g>
  </g>
</svg>
