<?xml version="1.0" encoding="UTF-8" standalone="no"?>
<!-- Created with Inkscape (http://www.inkscape.org/) -->

<svg
   xmlns:dc="http://purl.org/dc/elements/1.1/"
   xmlns:cc="http://creativecommons.org/ns#"
   xmlns:rdf="http://www.w3.org/1999/02/22-rdf-syntax-ns#"
   xmlns:svg="http://www.w3.org/2000/svg"
   xmlns="http://www.w3.org/2000/svg"
   xmlns:xlink="http://www.w3.org/1999/xlink"
   xmlns:sodipodi="http://sodipodi.sourceforge.net/DTD/sodipodi-0.dtd"
   xmlns:inkscape="http://www.inkscape.org/namespaces/inkscape"
   width="100"
   height="100"
   id="svg3417"
   version="1.1"
   inkscape:version="0.48.4 r9939"
   sodipodi:docname="Nouveau document 14">
  <defs
     id="defs3419">
    <radialGradient
       inkscape:collect="always"
       xlink:href="#linearGradient3793"
       id="radialGradient3005"
       gradientUnits="userSpaceOnUse"
       cx="290.6568"
       cy="761.70538"
       fx="290.6568"
       fy="761.70538"
       r="382.98306" />
    <linearGradient
       id="linearGradient3793">
      <stop
         style="stop-color:#333333;stop-opacity:1;"
         offset="0"
         id="stop3795" />
      <stop
         id="stop3803"
         offset="0.5"
         style="stop-color:#333333;stop-opacity:1;" />
      <stop
         id="stop3801"
         offset="0.79654509"
         style="stop-color:#333333;stop-opacity:0.46666667;" />
      <stop
         style="stop-color:#ffffff;stop-opacity:0;"
         offset="1"
         id="stop3797" />
    </linearGradient>
    <radialGradient
       inkscape:collect="always"
       xlink:href="#linearGradient3793"
       id="radialGradient3474"
       gradientUnits="userSpaceOnUse"
       cx="290.6568"
       cy="761.70538"
       fx="290.6568"
       fy="761.70538"
       r="382.98306" />
  </defs>
  <sodipodi:namedview
     id="base"
     pagecolor="#ffffff"
     bordercolor="#666666"
     borderopacity="1.0"
     inkscape:pageopacity="0.0"
     inkscape:pageshadow="2"
     inkscape:zoom="0.35"
     inkscape:cx="375"
     inkscape:cy="62.857143"
     inkscape:document-units="px"
     inkscape:current-layer="layer1"
     showgrid="false"
     inkscape:window-width="615"
     inkscape:window-height="364"
     inkscape:window-x="1"
     inkscape:window-y="83"
     inkscape:window-maximized="0" />
  <metadata
     id="metadata3422">
    <rdf:RDF>
      <cc:Work
         rdf:about="">
        <dc:format>image/svg+xml</dc:format>
        <dc:type
           rdf:resource="http://purl.org/dc/dcmitype/StillImage" />
        <dc:title></dc:title>
      </cc:Work>
    </rdf:RDF>
  </metadata>
  <g
     inkscape:label="Calque 1"
     inkscape:groupmode="layer"
     id="layer1"
     transform="translate(0,-952.36218)">
    <g
       id="g3462"
       transform="translate(-67.142858,32.857147)">
      <g
         id="g3162"
         transform="matrix(0.96946946,0,0,0.96946946,68.669385,921.03156)">
        <path
           sodipodi:type="arc"
           style="color:#000000;fill:url(#radialGradient3474);fill-opacity:1;fill-rule:nonzero;stroke:none;stroke-width:0;marker:none;visibility:visible;display:inline;overflow:visible;enable-background:accumulate"
           id="path3791"
           sodipodi:cx="290.6568"
           sodipodi:cy="761.70538"
           sodipodi:rx="382.98306"
           sodipodi:ry="382.98306"
           d="m 673.63986,761.70538 c 0,211.51571 -171.46736,382.98302 -382.98306,382.98302 -211.515706,0 -382.983063,-171.46731 -382.983063,-382.98302 0,-211.5157 171.467357,-382.98306 382.983063,-382.98306 211.5157,0 382.98306,171.46736 382.98306,382.98306 z"
           transform="matrix(0.11725666,0,0,0.11725666,15.918553,-39.31503)" />
        <path
           style="color:#000000;fill:#ffffff;fill-opacity:0.24705882;stroke:none;stroke-width:1;marker:none;visibility:visible;display:inline;overflow:visible;enable-background:accumulate"
           d="m 17.0625,10 5,5 55.875,0 5,-5 -65.875,0 z M 10,17.0625 l 0,65.875 5,-5 0,-55.875 -5,-5 z m 80,0 -5,5 0,55.875 5,5 0,-65.875 z M 22.0625,85 l -5,5 65.875,0 -5,-5 -55.875,0 z"
           id="rect3049"
           inkscape:connector-curvature="0" />
        <path
           id="path3828"
           d="m 23.238281,17.5 4.0625,4.0625 45.398437,0 4.0625,-4.0625 -53.523437,0 z M 17.5,23.238281 l 0,53.523437 4.0625,-4.0625 0,-45.398437 -4.0625,-4.0625 z m 65,0 -4.0625,4.0625 0,45.398437 4.0625,4.0625 0,-53.523437 z M 27.300781,78.4375 l -4.0625,4.0625 53.523437,0 -4.0625,-4.0625 -45.398437,0 z"
           style="color:#000000;fill:#ffffff;fill-opacity:0.24705882;stroke:none;stroke-width:1;marker:none;visibility:visible;display:inline;overflow:visible;enable-background:accumulate"
           inkscape:connector-curvature="0" />
        <path
           inkscape:connector-curvature="0"
           style="color:#000000;fill:#ffffff;fill-opacity:0.24705882;stroke:none;stroke-width:1;marker:none;visibility:visible;display:inline;overflow:visible;enable-background:accumulate"
           d="m 29.414062,25 3.125,3.125 34.921875,0 3.125,-3.125 -41.171875,0 z M 25,29.414062 l 0,41.171875 3.125,-3.125 0,-34.921875 -3.125,-3.125 z m 50,0 -3.125,3.125 0,34.921875 3.125,3.125 0,-41.171875 z M 32.539062,71.875 l -3.125,3.125 41.171875,0 -3.125,-3.125 -34.921875,0 z"
           id="path3830" />
        <path
           id="path3832"
           d="m -1.5746009,45.006058 7.0710679,0 39.509591,-39.509591 0,-7.0710679 -46.5806589,46.5806589 z m 0,9.987884 46.5806589,46.580658 0,-7.071067 -39.509591,-39.509591 -7.0710679,0 z m 56.5685429,-56.5685429 0,7.0710679 39.509591,39.509591 7.071067,0 -46.580658,-46.5806589 z m 0,96.0781339 0,7.071067 46.580658,-46.580658 -7.071067,0 -39.509591,39.509591 z"
           style="color:#000000;fill:#ffffff;fill-opacity:0.24705882;stroke:none;stroke-width:1;marker:none;visibility:visible;display:inline;overflow:visible;enable-background:accumulate"
           inkscape:connector-curvature="0" />
        <path
           inkscape:connector-curvature="0"
           style="color:#000000;fill:#ffffff;fill-opacity:0.24705882;stroke:none;stroke-width:1;marker:none;visibility:visible;display:inline;overflow:visible;enable-background:accumulate"
           d="m 8.0956366,45.942423 5.7452424,0 32.101543,-32.101543 0,-5.7452427 L 8.0956366,45.942423 z m 0,8.115154 37.8467854,37.846786 0,-5.745243 -32.101543,-32.101543 -5.7452424,0 z M 54.057577,8.0956366 l 0,5.7452424 32.101543,32.101543 5.745243,0 L 54.057577,8.0956366 z m 0,78.0634844 0,5.745242 37.846786,-37.846785 -5.745243,0 -32.101543,32.101543 z"
           id="path3834" />
        <path
           id="path3836"
           d="m 17.765874,46.878787 4.419417,0 24.693495,-24.693495 0,-4.419417 -29.112912,29.112912 z m 0,6.242426 29.112912,29.112912 0,-4.419417 -24.693495,-24.693495 -4.419417,0 z m 35.355339,-35.355339 0,4.419417 24.693495,24.693495 4.419417,0 -29.112912,-29.112912 z m 0,60.048835 0,4.419417 29.112912,-29.112912 -4.419417,0 -24.693495,24.693495 z"
           style="color:#000000;fill:#ffffff;fill-opacity:0.24705882;stroke:none;stroke-width:1;marker:none;visibility:visible;display:inline;overflow:visible;enable-background:accumulate"
           inkscape:connector-curvature="0" />
      </g>
      <g
         style="fill:#ffffff;display:inline"
         id="google-plus-icon"
         transform="matrix(0.0695468,0,0,0.0695468,100.86424,953.79242)">
        <path
           style="fill:#ffffff"
           id="path3343"
           d="m 462,141.347 h -54.621 v 54.622 h -27.311 v -54.622 h -54.622 v -27.311 h 54.622 v -54.62 h 27.311 v 54.621 H 462 v 27.31 z M 307.583,367.26 c 0,40.943 -37.384,90.787 -131.434,90.787 C 107.365,458.047 50,428.379 50,378.478 50,339.964 74.383,289.967 188.323,289.967 171.401,276.175 167.248,256.89 177.59,236.008 c -66.714,0 -100.879,-39.222 -100.879,-89.023 0,-48.731 36.242,-93.032 110.15,-93.032 18.66,0 118.398,0 118.398,0 l -26.457,27.77 h -31.079 c 21.925,12.562 33.586,38.433 33.586,66.949 0,26.175 -14.413,47.375 -34.983,63.279 -36.503,28.222 -27.158,43.98 11.087,71.872 37.708,28.251 50.17,50.059 50.17,83.437 z M 233.738,150.453 c -5.506,-41.905 -32.806,-76.284 -64.704,-77.243 -31.909,-0.949 -53.309,31.119 -47.798,73.035 5.509,41.905 35.834,71.178 67.749,72.139 31.897,0.949 50.257,-26.021 44.753,-67.931 z m 32.893,221.01 c 0,-34.466 -31.441,-67.317 -84.192,-67.317 -47.542,-0.523 -87.832,30.042 -87.832,65.471 0,36.154 34.335,66.25 81.879,66.25 60.781,-0.001 90.145,-28.25 90.145,-64.404 z"
           inkscape:connector-curvature="0" />
      </g>
    </g>
  </g>
</svg>
