<?xml version="1.0" encoding="UTF-8" standalone="no"?>
<!-- Created with Inkscape (http://www.inkscape.org/) -->

<svg
   xmlns:dc="http://purl.org/dc/elements/1.1/"
   xmlns:cc="http://creativecommons.org/ns#"
   xmlns:rdf="http://www.w3.org/1999/02/22-rdf-syntax-ns#"
   xmlns:svg="http://www.w3.org/2000/svg"
   xmlns="http://www.w3.org/2000/svg"
   xmlns:xlink="http://www.w3.org/1999/xlink"
   xmlns:sodipodi="http://sodipodi.sourceforge.net/DTD/sodipodi-0.dtd"
   xmlns:inkscape="http://www.inkscape.org/namespaces/inkscape"
   width="100"
   height="100"
   id="svg3417"
   version="1.1"
   inkscape:version="0.48.4 r9939"
   sodipodi:docname="facebook.svg">
  <defs
     id="defs3419">
    <linearGradient
       id="linearGradient3793">
      <stop
         style="stop-color:#333333;stop-opacity:1;"
         offset="0"
         id="stop3795" />
      <stop
         id="stop3803"
         offset="0.5"
         style="stop-color:#333333;stop-opacity:1;" />
      <stop
         id="stop3801"
         offset="0.79654509"
         style="stop-color:#333333;stop-opacity:0.46666667;" />
      <stop
         style="stop-color:#ffffff;stop-opacity:0;"
         offset="1"
         id="stop3797" />
    </linearGradient>
    <linearGradient
       id="linearGradient3793-0">
      <stop
         style="stop-color:#333333;stop-opacity:1;"
         offset="0"
         id="stop3795-4" />
      <stop
         id="stop3803-1"
         offset="0.5"
         style="stop-color:#333333;stop-opacity:1;" />
      <stop
         id="stop3801-1"
         offset="0.79654509"
         style="stop-color:#333333;stop-opacity:0.46666667;" />
      <stop
         style="stop-color:#ffffff;stop-opacity:0;"
         offset="1"
         id="stop3797-0" />
    </linearGradient>
    <radialGradient
       inkscape:collect="always"
       xlink:href="#linearGradient3793-0"
       id="radialGradient3616"
       gradientUnits="userSpaceOnUse"
       cx="290.6568"
       cy="761.70538"
       fx="290.6568"
       fy="761.70538"
       r="382.98306" />
    <radialGradient
       inkscape:collect="always"
       xlink:href="#linearGradient3793-06"
       id="radialGradient3005"
       gradientUnits="userSpaceOnUse"
       cx="290.6568"
       cy="761.70538"
       fx="290.6568"
       fy="761.70538"
       r="382.98306" />
    <linearGradient
       id="linearGradient3793-06">
      <stop
         style="stop-color:#333333;stop-opacity:1;"
         offset="0"
         id="stop3795-5" />
      <stop
         id="stop3803-0"
         offset="0.5"
         style="stop-color:#333333;stop-opacity:1;" />
      <stop
         id="stop3801-0"
         offset="0.79654509"
         style="stop-color:#333333;stop-opacity:0.46666667;" />
      <stop
         style="stop-color:#ffffff;stop-opacity:0;"
         offset="1"
         id="stop3797-9" />
    </linearGradient>
  </defs>
  <sodipodi:namedview
     id="base"
     pagecolor="#ffffff"
     bordercolor="#666666"
     borderopacity="1.0"
     inkscape:pageopacity="0.0"
     inkscape:pageshadow="2"
     inkscape:zoom="0.35"
     inkscape:cx="375"
     inkscape:cy="62.857143"
     inkscape:document-units="px"
     inkscape:current-layer="layer1"
     showgrid="false"
     inkscape:window-width="615"
     inkscape:window-height="364"
     inkscape:window-x="358"
     inkscape:window-y="162"
     inkscape:window-maximized="0" />
  <metadata
     id="metadata3422">
    <rdf:RDF>
      <cc:Work
         rdf:about="">
        <dc:format>image/svg+xml</dc:format>
        <dc:type
           rdf:resource="http://purl.org/dc/dcmitype/StillImage" />
        <dc:title></dc:title>
      </cc:Work>
    </rdf:RDF>
  </metadata>
  <g
     inkscape:label="Calque 1"
     inkscape:groupmode="layer"
     id="layer1"
     transform="translate(0,-952.36218)">
    <g
       transform="matrix(0.96946946,0,0,0.96946946,1.5265275,953.88871)"
       id="g3162">
      <path
         transform="matrix(0.11725666,0,0,0.11725666,15.918553,-39.31503)"
         d="m 673.63986,761.70538 c 0,211.51571 -171.46736,382.98302 -382.98306,382.98302 -211.515706,0 -382.983063,-171.46731 -382.983063,-382.98302 0,-211.5157 171.467357,-382.98306 382.983063,-382.98306 211.5157,0 382.98306,171.46736 382.98306,382.98306 z"
         sodipodi:ry="382.98306"
         sodipodi:rx="382.98306"
         sodipodi:cy="761.70538"
         sodipodi:cx="290.6568"
         id="path3791"
         style="color:#000000;fill:url(#radialGradient3005);fill-opacity:1;fill-rule:nonzero;stroke:none;stroke-width:0;marker:none;visibility:visible;display:inline;overflow:visible;enable-background:accumulate"
         sodipodi:type="arc" />
      <path
         inkscape:connector-curvature="0"
         id="rect3049"
         d="m 17.0625,10 5,5 55.875,0 5,-5 -65.875,0 z M 10,17.0625 l 0,65.875 5,-5 0,-55.875 -5,-5 z m 80,0 -5,5 0,55.875 5,5 0,-65.875 z M 22.0625,85 l -5,5 65.875,0 -5,-5 -55.875,0 z"
         style="color:#000000;fill:#ffffff;fill-opacity:0.24705882;stroke:none;stroke-width:1;marker:none;visibility:visible;display:inline;overflow:visible;enable-background:accumulate" />
      <path
         inkscape:connector-curvature="0"
         style="color:#000000;fill:#ffffff;fill-opacity:0.24705882;stroke:none;stroke-width:1;marker:none;visibility:visible;display:inline;overflow:visible;enable-background:accumulate"
         d="m 23.238281,17.5 4.0625,4.0625 45.398437,0 4.0625,-4.0625 -53.523437,0 z M 17.5,23.238281 l 0,53.523437 4.0625,-4.0625 0,-45.398437 -4.0625,-4.0625 z m 65,0 -4.0625,4.0625 0,45.398437 4.0625,4.0625 0,-53.523437 z M 27.300781,78.4375 l -4.0625,4.0625 53.523437,0 -4.0625,-4.0625 -45.398437,0 z"
         id="path3828" />
      <path
         id="path3830"
         d="m 29.414062,25 3.125,3.125 34.921875,0 3.125,-3.125 -41.171875,0 z M 25,29.414062 l 0,41.171875 3.125,-3.125 0,-34.921875 -3.125,-3.125 z m 50,0 -3.125,3.125 0,34.921875 3.125,3.125 0,-41.171875 z M 32.539062,71.875 l -3.125,3.125 41.171875,0 -3.125,-3.125 -34.921875,0 z"
         style="color:#000000;fill:#ffffff;fill-opacity:0.24705882;stroke:none;stroke-width:1;marker:none;visibility:visible;display:inline;overflow:visible;enable-background:accumulate"
         inkscape:connector-curvature="0" />
      <path
         inkscape:connector-curvature="0"
         style="color:#000000;fill:#ffffff;fill-opacity:0.24705882;stroke:none;stroke-width:1;marker:none;visibility:visible;display:inline;overflow:visible;enable-background:accumulate"
         d="m -1.5746009,45.006058 7.0710679,0 39.509591,-39.509591 0,-7.0710679 -46.5806589,46.5806589 z m 0,9.987884 46.5806589,46.580658 0,-7.071067 -39.509591,-39.509591 -7.0710679,0 z m 56.5685429,-56.5685429 0,7.0710679 39.509591,39.509591 7.071067,0 -46.580658,-46.5806589 z m 0,96.0781339 0,7.071067 46.580658,-46.580658 -7.071067,0 -39.509591,39.509591 z"
         id="path3832" />
      <path
         id="path3834"
         d="m 8.0956366,45.942423 5.7452424,0 32.101543,-32.101543 0,-5.7452427 L 8.0956366,45.942423 z m 0,8.115154 37.8467854,37.846786 0,-5.745243 -32.101543,-32.101543 -5.7452424,0 z M 54.057577,8.0956366 l 0,5.7452424 32.101543,32.101543 5.745243,0 L 54.057577,8.0956366 z m 0,78.0634844 0,5.745242 37.846786,-37.846785 -5.745243,0 -32.101543,32.101543 z"
         style="color:#000000;fill:#ffffff;fill-opacity:0.24705882;stroke:none;stroke-width:1;marker:none;visibility:visible;display:inline;overflow:visible;enable-background:accumulate"
         inkscape:connector-curvature="0" />
      <path
         inkscape:connector-curvature="0"
         style="color:#000000;fill:#ffffff;fill-opacity:0.24705882;stroke:none;stroke-width:1;marker:none;visibility:visible;display:inline;overflow:visible;enable-background:accumulate"
         d="m 17.765874,46.878787 4.419417,0 24.693495,-24.693495 0,-4.419417 -29.112912,29.112912 z m 0,6.242426 29.112912,29.112912 0,-4.419417 -24.693495,-24.693495 -4.419417,0 z m 35.355339,-35.355339 0,4.419417 24.693495,24.693495 4.419417,0 -29.112912,-29.112912 z m 0,60.048835 0,4.419417 29.112912,-29.112912 -4.419417,0 -24.693495,24.693495 z"
         id="path3836" />
    </g>
    <path
       inkscape:connector-curvature="0"
       d="m 60.111877,995.00585 c -0.0214,-0.0114 -0.0429,-0.0357 -0.066,-0.058 -1.33669,-1.19025 -2.90645,-1.75995 -4.71193,-1.69209 l -0.0553,-0.12145 c 0.0114,-0.0114 0.0223,-0.0114 0.033,-0.0114 1.63672,-0.35805 2.60732,-0.72594 2.89573,-1.12597 0.10087,-0.32235 -0.0206,-0.50093 -0.3786,-0.54557 -0.82504,0.10087 -1.58134,0.26698 -2.26086,0.52235 0.8581,-0.52235 1.19115,-0.89113 1.00275,-1.07953 -0.84737,0.0213 -1.76083,0.43484 -2.71894,1.24829 0.35537,-0.58128 0.49111,-0.89292 0.40182,-0.94827 -0.45807,0.3018 -0.859,0.62504 -1.20366,0.96881 -0.72416,0.76792 -1.30277,1.48136 -1.74834,2.12873 l -0.0223,0.0553 c -1.14562,1.76977 -1.94925,3.55293 -2.42873,5.36913 l -0.17771,0.13309 -0.0322,0.033 c -0.69114,-0.82506 -1.51618,-1.51528 -2.50644,-2.07246 -1.17061,-0.72326 -2.54035,-1.41529 -4.1217,-2.08141 -1.7269,-0.84647 -3.47703,-1.54921 -5.2468,-2.09566 -0.0114,1.88493 0.95721,3.38683 2.88591,4.47887 v 0.033 c -0.6813,-0.0133 -1.33849,0.0892 -1.97246,0.27949 0.12242,1.7474 1.42599,2.9511 3.89848,3.6181 l -0.0114,0.034 c -0.9706,-0.055 -1.77154,0.2688 -2.39479,0.9349 0.81255,1.5153 2.24925,2.2394 4.33243,2.1832 -0.41252,0.2018 -0.73398,0.4232 -0.94648,0.6697 -0.3795,0.3777 -0.50183,0.825 -0.3795,1.3358 0.44557,0.7679 1.2474,1.1242 2.42784,1.0688 l 0.0679,0.079 -0.0339,0.033 c -2.03762,2.0046 -4.5003,2.9073 -7.38533,2.7172 l -0.0446,0.024 c -1.75993,-0.013 -3.64132,-0.8135 -5.67984,-2.4181 2.04923,2.8056 4.76728,4.8325 8.13002,6.104 3.85383,1.2135 7.70857,1.3028 11.5517,0.267 h 0.0662 c 3.7324,-1.0251 6.89422,-3.1314 9.50066,-6.3156 1.20275,-1.6698 1.96084,-3.2609 2.26176,-4.7896 1.94924,0.067 3.35291,-0.467 4.22171,-1.6028 l -0.0213,-0.035 c -0.64646,0.2223 -1.91619,0.158 -3.79935,-0.209 v -0.2036 c 0,-0.01 0,-0.01 0.0114,0 2.06264,-0.2205 3.27612,-0.8563 3.66544,-1.9046 -1.4385,0.5366 -2.85199,0.5447 -4.25655,0.046 -0.2527,-1.84744 -1.16615,-3.53148 -2.74931,-5.05571"
       id="path7"
       style="fill:#ffffff;fill-opacity:1;display:inline" />
  </g>
</svg>
